/* XPM */
static char * vent_open_chizz_xpm[] = {
"64 64 132 2",
"  	c #F9E650",
". 	c #F9E756",
"+ 	c #FBEB71",
"@ 	c #FDED7F",
"# 	c #FDEE82",
"$ 	c #FDEE80",
"% 	c #FCEB74",
"& 	c #FAE758",
"* 	c #F9E651",
"= 	c #FDEE81",
"- 	c #FCEC79",
"; 	c #FAE860",
"> 	c #F9E652",
", 	c #FAE963",
"' 	c #FCED7D",
") 	c #FDED7E",
"! 	c #FBE968",
"~ 	c #FBE969",
"{ 	c #FCEC75",
"] 	c #000000",
"^ 	c #F9E653",
"/ 	c #FBEA6D",
"( 	c #FBEB73",
"_ 	c #F9E654",
": 	c #FCEC7A",
"< 	c #FCED7A",
"[ 	c #060707",
"} 	c #FBEA6A",
"| 	c #FAE85D",
"1 	c #0D0E10",
"2 	c #2C2F38",
"3 	c #333640",
"4 	c #262930",
"5 	c #191B20",
"6 	c #090C0D",
"7 	c #FDEC7F",
"8 	c #393D47",
"9 	c #4C515F",
"0 	c #454A57",
"a 	c #3F444F",
"b 	c #1F2328",
"c 	c #171F22",
"d 	c #131417",
"e 	c #585F6F",
"f 	c #656C7F",
"g 	c #787A8A",
"h 	c #817C8A",
"i 	c #737787",
"j 	c #5F6577",
"k 	c #525867",
"l 	c #13191B",
"m 	c #878593",
"n 	c #A49AA4",
"o 	c #9F96A1",
"p 	c #9A939E",
"q 	c #958F9B",
"r 	c #8C8896",
"s 	c #7A7078",
"t 	c #696576",
"u 	c #828190",
"v 	c #9C9097",
"w 	c #AB8890",
"x 	c #AE9299",
"y 	c #AA969F",
"z 	c #645C61",
"A 	c #6F7385",
"B 	c #9E5158",
"C 	c #A05B62",
"D 	c #A2646B",
"E 	c #A56D74",
"F 	c #A97F87",
"G 	c #B09BA3",
"H 	c #A79AA1",
"I 	c #908C98",
"J 	c #6A7082",
"K 	c #373235",
"L 	c #FAE85F",
"M 	c #7D616F",
"N 	c #93464E",
"O 	c #97363C",
"P 	c #993F46",
"Q 	c #9C484F",
"R 	c #AF5B5C",
"S 	c #A7767D",
"T 	c #F9E755",
"U 	c #FAE759",
"V 	c #FAE85B",
"W 	c #FAE85E",
"X 	c #FBE967",
"Y 	c #FCEC76",
"Z 	c #986C75",
"` 	c #F9E758",
" .	c #FAE968",
"..	c #FBEA70",
"+.	c #FDEC76",
"@.	c #FCEE7B",
"#.	c #B83C41",
"$.	c #8F848B",
"%.	c #FBEB70",
"&.	c #BF4348",
"*.	c #7D7E8D",
"=.	c #7E4652",
"-.	c #A89DA6",
";.	c #925059",
">.	c #877A81",
",.	c #FDED7D",
"'.	c #B1353A",
").	c #FBEA6F",
"!.	c #AA2E33",
"~.	c #FCED7C",
"{.	c #FBEB72",
"].	c #C74B4F",
"^.	c #6D666C",
"/.	c #FAE864",
"(.	c #FAE75A",
"_.	c #CE5255",
":.	c #7F5562",
"<.	c #FBEC75",
"[.	c #433E41",
"}.	c #4B464B",
"|.	c #595256",
"1.	c #2D292B",
"2.	c #952D33",
"3.	c #FBEA69",
"4.	c #FAE861",
"5.	c #FBE96B",
"6.	c #FBEB6F",
"7.	c #FBE863",
"8.	c #FCEB73",
"9.	c #FBE966",
"0.	c #FDEC79",
"a.	c #FBED7A",
"                      . + @ # # # # # # # # # # # # # # # # # # # # # $ % & *     * & % $ # # # # # # # # # # # # # # # # = - ; ",
"                    > , ' = # # # # # # # # # # # # # # # # # # # # # # ) ! >     > ~ ) # # # # # # # # # # # # # # # # # # @ { ",
"          ] ]       ^ / = # # # # # # # # # # # # # # # # # # # # # # # = ( _     _ ( = # # # # # # # # # # # # # # # # # # # $ ",
"        ] ] ] ] ] ] ] ] ] # # # # # # # # # # # # # # # # # # # # # # # # : &     & < # # # # # # # # # # # # # # # # # # # # # ",
"        ] ] ] [ [ [ ] ] ] ] ] ] ] ] ] ] # # # # # # # # # # # # # # # # # $ } | | } $ # # # # # # # # # # # # # # # # # # # # # ",
"        ] ] 1 2 3 4 5 6 ] ] ] ] ] ] ] ] ] ] ] ] ] ] # # # # # # # # # # # # 7 % % @ # # # # # # # # # # # # # # # # # # # # # # ",
"        ] ] 1 8 9 9 9 0 a 3 2 4 b c d [ ] ] ] ] ] ] ] ] ] ] # # # # # # # # # = = # # # # # # # # # # # # # # # # # # # # # # # ",
"          ] ] a e f g h i f j k 9 0 8 2 4 5 l d d 1 6 [ ] ] ] ] ] ] ] ] ] # # # # # # # # # # # # # # # # # # # # # # # # # # # ",
"          ] ] 4 k f m n n o p q r h h s t e 9 0 8 3 4 l 6 ] ] ] ] ] ] ] ] ] ] ] ] ] ] # # # # # # # # # # # # # # # # # # # # # ",
"            ] [ a j u v w x x x y v o p q r m h i s t z 9 0 8 3 4 b l [ ] ] ] ] ] ] ] ] ] ] ] # # # # # # # # # # # # # # # # # ",
"            ] ] 2 k A s B C D E F F w y y G G H o v I r u g J t k 9 0 8 K 4 b b 5 d 1 [ ] ] ] ] ] ] ] # # # # # # # # # # # # # ",
"          _ L ] 1 a j M N O P Q B B R R C D E S F w w x H n n p v I m h s t e 9 a 8 2 c 1 [ ] ] ] ] ] # # # # # # # # # # # # # ",
"  T U V W X Y ] ] 2 k t Z S E D R B Q P O P P Q B D E E F F F F w w v v v q I m h h s t z 9 0 8 2 5 ] ] # # # # # # # # # # # # ",
"`  ...+.@.$ = # ] 1 a f m y x w w F S E D C R R B B Q #.#.P Q Q C D E F F x x y y v v v $.h i t k 8 1 ] # # # # # # # # # # # # ",
"%.) $ = = # # # ] ] 2 k g I p o H G G G G y x w F S E D B Q Q P #.#.Q &.R R B C D E E S F w y q i k 2 ] ] # # # # # # # # # # # ",
") # # # # # # # # ] d a f *.I p p p p p p p p p v x x w w w w F S E E R B Q O O O Q Q R R D E E M j a ] ] # # # # # # # # # # # ",
"# # # # # # # # # ] ] 2 k A r o p q q I I q q q p o o n n n n H o v w F S S E E D R R R R Q #.O =.t k b ] ] # # # # # # # # # # ",
"# # # # # # # # # # ] 1 a f m -.H G G G G -.n n o p q I r r r r I q p o H G G H y x w F S E D B ;.M j a ] ] # # # # # # # # # # ",
"# # # # # # # # # # ] ] 2 k i >.D E S F F w x y H -.-.n n n n n o o p p p q q I I I q v v v w x x I A k l ] # # # # # # # # # # ",
"# # # # # # # # # # # ] d a j M N O P Q C D E S F w w w x x x x y H n o o p q q q q p p p o o o n q i e 3 ] ] # # # # # # # # # ",
"# # # # # # # # # # # ] ] 2 k s Z B Q Q Q Q Q Q #.#.P B C D E S F w x G G G G G G G H o o p q I I m g f 9 1 ] # # # # # # # # ,.",
"# # # # # # # # # # # # ] d a f $.x x w F S E D C Q P '.'.#.&.Q R R R R D E E S F w w x y -.-.-.-.-.p i e 2 ] ] # # # # # = @ ).",
"# # # # # # # # # # # # ] ] 2 e g q q q v v v F F F F S S E E D R B #.!.!.#.Q R R R E E S F F F w w w >.j 0 [ ] # # # = ~.{. .` ",
"# # # # # # # # # # # # # ] l a f A *.m r r I q p o n n v v w F S S E D R R R R R R ].&.#.#.'.Q B R E Z ^.k b ] ] # # ~./.(.T   ",
"# # # # # # # # # # # # # ] ] 2 k J m p q I r m *.*.*.u m m r q v o y y G x w w F E D C Q Q &.&.&.]._.R :.j a [ ] # = {.^       ",
"# # # # # # # # # # # # # # ] d a f u o y o o o p p q q q I I I I I r r r r I v v v w w w w w F S S E R C s k 5 ] # $ / ^       ",
"# # # # # # # # # # # # # # ] ] 4 k i v F w w x x x x x y v v q q I r m m m r I I q p p o o o v v w F F S $.f 8 ] ] = % `       ",
"# # # # # # # # # # # # # # # ] d a f s P ].&.Q B D E E S F w w y G G G H H o p q I r m *.*.*.u r r q p o o u 9 d ] # @ } | & > ",
"# # # # # # # # # # # # # # # ] ] 2 k t N Q '.!.#.#.&.R R R R R E E E S S F F w w v y o o o o o p q q I I r g e 2 ] ] # $ ' % W ",
"# # # # # # # # # # # # # # # # ] l a e :.Z E S S E E R R R R &.#.!.!.Q Q R R D E S F w w w w w v v v v q q I *.9 1 ] # # # $ <.",
"# # # # # # # # # # # # # # # # ] ] b a k >.I v x w w F F S E D C B R R R R &.&.&.&.&.&.P B C D E S F F w x y v e 4 ] ] # # # $ ",
"# # # # # # # # # # # # # # # # # ] 6 c 4 [.}.|.z s s >.$.v v y y x x w w F S E D C B Q '.#.#.#.&.R R R R R R C :.a [ ] # # # # ",
"# # # # # # # # # # # # # # # # ] ] ] ] ] ] ] ] 1.[.}.z z ^.s >.>.$.$.$.v v v w w w w F F F S E D R R R Q '.!.2.=.|.5 ] # # # # ",
"# # # # # # # # # # # # # # # # ] ] ] ] ] ] ] ] ] [ [ [ [ 6 1 5 3 }.z ^.s h $.I q p o n -.H y x w F F S E D D R ;.M 8 [ ] # # # ",
"# # # # # # # # # # # # # # # ] ] ] ] ] ] ] ] ] ] ] ] ] ] ] ] ] 1 5 b 1.K K [.}.|.k t A h m r q v p y y G G G y x v e d ] # # # ",
"# # # # # # # # # # # # # # ] ] ] ] ] ] ] ] ] ] ] ] ] ] ] ] ] ] ] ] ] ] ] ] ] [ 5 b 2 a 0 |.k ^.t s g h r I p p p p g 3 [ ] # # ",
"# # # # # # # # # # # # # ] ] ] ] ] ] ] ] ] ] ] ] ] ] ] ] ] ] ] ] ] ] ] ] ] ] ] ] ] ] ] ] ] 1 b 3 8 a 0 k j f i g h i 0 1 ] # # ",
"# # # # # # # # # # # # # ] ] ] ] ] ] ] ] ] ] ] ] ] ] ] ] ] ] ] ] ] ] ] ] ] ] ] ] ] ] ] ] ] ] [ 1 d d l 5 b 2 a 0 k k 0 d ] ] # ",
"= # # # # # # # # # # # ] ] ] ] ] ] ] ] ] ] ] ] ] ] ] ] ] ] ] ] ] ] ] ] ] ] ] ] ] ] ] ] ] ] ] ] ] ] ] ] ] ] 6 5 b 4 2 2 [ ] ] # ",
": # # # # # # # # # # ] ] ] ] ] ] ] ] ] ] ] ] ] ] ] ] ] ] ] ] ] ] ] ] ] ] ] ] ] ] ] ] ] ] ] ] ] ] ] ] ] ] ] ] ] ] ] ] ] ] ] ] # ",
"3.- ,.= # # # # # # ] ] ] ] ] ] ] ] ] ] ] ] ] ] ] ] ] ] ] ] ] ] ] ] ] ] ] ] ] ] ] ] ] ] ] ] ] ] ] ] ] ] ] ] ] ] ] ] ] ] ] ] ] # ",
"^ 4.5.Y $ # # # # ] ] ] ] ] ] ] ] ] ] ] ] ] ] ] ] ] ] ] ] ] ] ] ] ] ] ] ] ] ] ] ] ] ] ] ] ] ] ] ] ] ] ] ] ] ] ] ] ] ] ] ] ] ] # ",
"  > ^ (.- = # # ] ] ] ] ] ] ] ] ] ] ] ] ] ] ] ] ] ] ] ] ] ] ] ] ] ] ] ] ] ] ] ] ] ] ] ] ] ] ] ] ] ] ] ] ] ] ] ] ] ] ] ] ] ] ] # ",
"      _ 6.= # # ] ] ] ] ] ] ] ] ] ] ] ] ] ] ] ] ] ] ] ] ] ] ] ] ] ] ] ] ] ] ] ] ] ] ] ] ] ] ] ] ] ] ] ] ] ] ] ] ] ] ] ] ] ] # # ",
"      ^ ).= # ] ] ] ] ] ] ] ] ] ] ] ] ] ] ] ] ] ] ] ] ] ] ] ] ] ] ] ] ] ] ] ] ] ] ] ] ] ] ] ] ] ] ] ] ] ] ] ] ] ] ] ] ] ] # # # ",
"      | - = ] ] ] ] ] ] ] ] ] ] ] ] ] ] ] ] ] ] ] ] ] ] ] ] ] ] ] ] ] ] ] ] ] ] ] ] ] ] ] ] ] ] ] ] ] ] ] ] ] ] ] ] ] ] ] # # # ",
"T 7.} 8.$ ] ] ] ] ] ] ] ] ] ] ] ] ] ] ] ] ] ] ] ] ] ] ] ] ] ] ] ] ] ] ] ] ] ] ] ] ] ] ] ] ] ] ] ] ] ] ] ] ] ] ] ] ] ] ] # # # # ",
"9.0.$ # # ] ] ] ] ] ] ] ] ] ] ] ] ] ] ] ] ] ] ] ] ] ] ] ] ] ] ] ] ] ] ] ] ] ] ] ] ] ] ] ] ] ] ] ] ] ] ] ] ] ] ] ] ] ] # # # # # ",
"a.= # # ] ] ] ] ] ] ] ] ] ] ] ] ] ] ] ] ] ] ] ] ] ] ] ] ] ] ] ] ] ] ] ] ] ] ] ] ] ] ] ] ] ] ] ] ] ] ] ] ] ] ] ] ] ] ] # # # # # ",
"= # # ] ] ] ] ] ] ] ] ] ] ] ] ] ] ] ] ] ] ] ] ] ] ] ] ] ] ] ] ] ] ] ] ] ] ] ] ] ] ] ] ] ] ] ] ] ] ] ] ] ] ] ] ] ] ] # # # # # # ",
"# # ] ] ] ] ] ] ] ] ] ] ] ] ] ] ] ] ] ] ] ] ] ] ] ] ] ] ] ] ] ] ] ] ] ] ] ] ] ] ] ] ] ] ] ] ] ] ] ] ] ] ] ] ] ] ] # # # # # # # ",
"# ] ] ] ] ] ] ] ] ] ] ] ] ] ] ] ] ] ] ] ] ] ] ] ] ] ] ] ] ] ] ] ] ] ] ] ] ] ] ] ] ] ] ] ] ] ] ] ] ] ] ] ] ] ] ] ] # # # # # # # ",
"# ] ] ] ] ] ] ] ] ] ] ] ] ] ] ] ] ] ] ] ] ] ] ] ] ] ] ] ] ] ] ] ] ] ] ] ] ] ] ] ] ] ] ] ] ] ] ] ] ] ] ] ] ] ] ] # # # # # # # # ",
"# ] ] ] ] ] ] ] ] ] ] ] ] ] ] ] ] ] ] ] ] ] ] ] ] ] ] ] ] ] ] ] ] ] ] ] ] ] ] ] ] ] ] ] ] ] ] ] ] ] ] ] ] ] ] # # # # # # # # # ",
"# ] ] ] ] ] ] ] ] ] ] ] ] ] ] ] ] ] ] ] ] ] ] ] ] ] ] ] ] ] ] ] ] ] ] ] ] ] ] ] ] ] ] ] ] ] ] ] ] ] ] ] ] ] ] # # # # # # # # # ",
"# # # # ] ] ] ] ] ] ] ] ] ] ] ] ] ] ] ] ] ] ] ] ] ] ] ] ] ] ] ] ] ] ] ] ] ] ] ] ] ] ] ] ] ] ] ] ] ] ] ] ] ] # # # # # # # # # # ",
"# # # # # # # # ] ] ] ] ] ] ] ] ] ] ] ] ] ] ] ] ] ] ] ] ] ] ] ] ] ] ] ] ] ] ] ] ] ] ] ] ] ] ] ] ] ] ] ] ] # # # # # # # # # # # ",
"# # # # # # # # # # # # # # ] ] ] ] ] ] ] ] ] ] ] ] ] ] ] ] ] ] ] ] ] ] ] ] ] ] ] ] ] ] ] ] ] ] ] ] ] ] ] # # # # # # # # # # # ",
"# # # # # # # # # # # # # # # # # # # # # ] ] ] ] ] ] ] ] ] ] ] ] ] ] ] ] ] ] ] ] ] ] ] ] ] ] ] ] ] ] ] # # # # # # # # # # # # ",
"# # # # # # # # # # # # # # # # # # # # # # # # # # ] ] ] ] ] ] ] ] ] ] ] ] ] ] ] ] ] ] ] ] ] ] ] ] ] # # # # # # # # # # # # # ",
"# # # # # # # # # # # # # # # # # # # # # # # # # # # # # # # # ] ] ] ] ] ] ] ] ] ] ] ] ] ] ] ] ] ] # # # # # # # # # # # # # # ",
"$ # # # # # # # # # # # # # # # # # # # # # # # # # # # # # # # # # # # # # # ] ] ] ] ] ] ] ] ] ] ] # # # # # # # # # # # # # $ ",
"Y @ # # # # # # # # # # # # # # # # # # # # # # # # # # # # # # # # # # # # # # # # # # # ] ] ] # # # # # # # # # # # # # # @ { ",
"; - = # # # # # # # # # # # # # # # # # # # # # # # # # # # # # # # # # # # # # # # # # # # # # # # # # # # # # # # # # # = - ; "};
