/* XPM */
static char * cheese_wall_xpm[] = {
"64 64 314 2",
"  	c #F9E650",
". 	c #F9E756",
"+ 	c #FBEB71",
"@ 	c #FDED7F",
"# 	c #FDEE82",
"$ 	c #FDEE80",
"% 	c #FCEB74",
"& 	c #FAE758",
"* 	c #F9E651",
"= 	c #FDEE81",
"- 	c #FCEC79",
"; 	c #FAE860",
"> 	c #F9E652",
", 	c #FAE963",
"' 	c #FCED7D",
") 	c #FDED7E",
"! 	c #FBE968",
"~ 	c #FBE969",
"{ 	c #FCEC75",
"] 	c #F9E653",
"^ 	c #FBEA6D",
"/ 	c #FBEB73",
"( 	c #F9E654",
"_ 	c #FCEB72",
": 	c #FCEC7A",
"< 	c #FCED7A",
"[ 	c #FDEC76",
"} 	c #FBEA6A",
"| 	c #FAE85D",
"1 	c #FAE757",
"2 	c #FCED7B",
"3 	c #FDED82",
"4 	c #FCEB80",
"5 	c #FCE97D",
"6 	c #FBE67C",
"7 	c #FBE57A",
"8 	c #FAE379",
"9 	c #F8E278",
"0 	c #F9E077",
"a 	c #F8DF76",
"b 	c #FAE278",
"c 	c #FBE774",
"d 	c #FCE975",
"e 	c #FDEC7F",
"f 	c #FBEA7F",
"g 	c #FAE57B",
"h 	c #F9E278",
"i 	c #F8DF75",
"j 	c #F8DE75",
"k 	c #F9E754",
"l 	c #FCE97E",
"m 	c #F9E47A",
"n 	c #FAE85F",
"o 	c #FCED81",
"p 	c #F9E076",
"q 	c #F9DF76",
"r 	c #FBE67B",
"s 	c #FCEC81",
"t 	c #FDED81",
"u 	c #FAE67C",
"v 	c #FAE759",
"w 	c #FBEA6E",
"x 	c #F8E076",
"y 	c #FBE87D",
"z 	c #F8DD72",
"A 	c #FAD357",
"B 	c #FAD354",
"C 	c #F8DB6F",
"D 	c #F9E755",
"E 	c #FAE85B",
"F 	c #FAE85E",
"G 	c #FBE967",
"H 	c #FCEC76",
"I 	c #FCEC80",
"J 	c #F9E177",
"K 	c #FDC736",
"L 	c #FFBD17",
"M 	c #FEC125",
"N 	c #F9DA67",
"O 	c #FCCD44",
"P 	c #FBCD46",
"Q 	c #F9DA6B",
"R 	c #F9E758",
"S 	c #FAE968",
"T 	c #FBEA70",
"U 	c #FCEE7B",
"V 	c #FCEC7F",
"W 	c #FAD55D",
"X 	c #FDC632",
"Y 	c #FDC62F",
"Z 	c #FBD252",
"` 	c #FCCA3C",
" .	c #F9DB6C",
"..	c #FCC939",
"+.	c #FEC225",
"@.	c #FDC52E",
"#.	c #FAD55A",
"$.	c #FBEB70",
"%.	c #F9DB6E",
"&.	c #FBD151",
"*.	c #F8DD70",
"=.	c #FBCF4A",
"-.	c #FEC227",
";.	c #F8DD73",
">.	c #FBCE49",
",.	c #FDC836",
"'.	c #FCCA3E",
").	c #F9D866",
"!.	c #FAD45A",
"~.	c #F9D863",
"{.	c #FFBE19",
"].	c #F9E277",
"^.	c #FCEA7F",
"/.	c #FEC42B",
"(.	c #FFBE1A",
"_.	c #F9D864",
":.	c #FCCB41",
"<.	c #FAD760",
"[.	c #FBD251",
"}.	c #FAD458",
"|.	c #F8DC71",
"1.	c #FAE67B",
"2.	c #F8DE73",
"3.	c #FDC631",
"4.	c #FCCC42",
"5.	c #FCCA3A",
"6.	c #FEC021",
"7.	c #F9DB6D",
"8.	c #F8DC6F",
"9.	c #FAD255",
"0.	c #FDC52F",
"a.	c #FFBF1B",
"b.	c #F9D968",
"c.	c #FDED7D",
"d.	c #FAE073",
"e.	c #FBD150",
"f.	c #FCCB3F",
"g.	c #FBCE47",
"h.	c #F9D967",
"i.	c #FADF73",
"j.	c #FBEA6F",
"k.	c #FAD861",
"l.	c #FAD761",
"m.	c #FBEB72",
"n.	c #FBD65A",
"o.	c #F9DC6D",
"p.	c #FBD04D",
"q.	c #FBD556",
"r.	c #FAE75A",
"s.	c #FBCA44",
"t.	c #F8DD74",
"u.	c #F9DB6B",
"v.	c #FCCB3D",
"w.	c #FCCA3F",
"x.	c #FDBB27",
"y.	c #FBCE4A",
"z.	c #FAD456",
"A.	c #FAD45B",
"B.	c #FAD65E",
"C.	c #FDBB21",
"D.	c #FDB924",
"E.	c #FBD04B",
"F.	c #FCCA3D",
"G.	c #FFBD19",
"H.	c #FEC429",
"I.	c #F9DA6A",
"J.	c #FEC121",
"K.	c #FAD75F",
"L.	c #FBCF4B",
"M.	c #FDB81D",
"N.	c #FFBF1C",
"O.	c #FCCC40",
"P.	c #FEC32A",
"Q.	c #F9D762",
"R.	c #FFBF1D",
"S.	c #FDB820",
"T.	c #FBD04F",
"U.	c #FEC01E",
"V.	c #FCCE46",
"W.	c #FAD660",
"X.	c #FCCB3E",
"Y.	c #F9D965",
"Z.	c #FBEC75",
"`.	c #FFBE18",
" +	c #FFBE1C",
".+	c #FEC020",
"++	c #F9DC6E",
"@+	c #FDC835",
"#+	c #FEC123",
"$+	c #FAD55B",
"%+	c #FBD152",
"&+	c #FBCF4C",
"*+	c #FCCC43",
"=+	c #FEC122",
"-+	c #F9D969",
";+	c #FCCD45",
">+	c #FAD459",
",+	c #FCCC44",
"'+	c #FDC630",
")+	c #FDC734",
"!+	c #F8A41F",
"~+	c #F49922",
"{+	c #FAAE1C",
"]+	c #FFC01D",
"^+	c #FCC93B",
"/+	c #FEBA18",
"(+	c #F49822",
"_+	c #F69F20",
":+	c #FBD14E",
"<+	c #FAD65C",
"[+	c #FBD04E",
"}+	c #F9A71D",
"|+	c #F59C21",
"1+	c #FBB01B",
"2+	c #FEC329",
"3+	c #FCB11B",
"4+	c #F59D21",
"5+	c #F7A11F",
"6+	c #FEB918",
"7+	c #FEBA25",
"8+	c #F59B21",
"9+	c #F9A81D",
"0+	c #FBEA69",
"a+	c #FDB828",
"b+	c #FAAB1C",
"c+	c #FDB92A",
"d+	c #FAE861",
"e+	c #FBE96B",
"f+	c #FBB52B",
"g+	c #FDB719",
"h+	c #F8A61E",
"i+	c #FAAB1D",
"j+	c #FFBC17",
"k+	c #FBB630",
"l+	c #F8B22C",
"m+	c #FCB31A",
"n+	c #FBAF1B",
"o+	c #FCB21A",
"p+	c #FBB01A",
"q+	c #F9B43B",
"r+	c #F5B436",
"s+	c #FAAC1C",
"t+	c #F7A21F",
"u+	c #F7B94F",
"v+	c #F6C33F",
"w+	c #F9A91D",
"x+	c #F7A31F",
"y+	c #FFBC18",
"z+	c #F69D20",
"A+	c #F8C860",
"B+	c #F8D853",
"C+	c #FDB718",
"D+	c #FBAF1C",
"E+	c #F8A51F",
"F+	c #F8A71D",
"G+	c #FEBB17",
"H+	c #FADD74",
"I+	c #FBE863",
"J+	c #FCEB73",
"K+	c #F6AB3F",
"L+	c #F69E21",
"M+	c #FEBB18",
"N+	c #FDB619",
"O+	c #FCB41A",
"P+	c #FAAD1B",
"Q+	c #F69E20",
"R+	c #F6AA3F",
"S+	c #FBE966",
"T+	c #FDEC79",
"U+	c #FAD76E",
"V+	c #FBED7A",
"W+	c #F7B74F",
"X+	c #F6A93C",
"Y+	c #F7A21E",
"Z+	c #FDB819",
"`+	c #FDB61A",
" @	c #F5A73A",
".@	c #FCE57B",
"+@	c #F59A21",
"@@	c #FAAE1B",
"#@	c #F5A539",
"$@	c #F6AB40",
"%@	c #F6A120",
"&@	c #FCB419",
"*@	c #F6A01F",
"=@	c #FCEB7F",
"-@	c #F7BC53",
";@	c #F7BC54",
">@	c #FBD96F",
",@	c #F5A437",
"'@	c #FAAD1C",
")@	c #F5A234",
"!@	c #FAD46B",
"~@	c #F9CA61",
"{@	c #F59E2E",
"]@	c #FDB419",
"^@	c #F8C961",
"/@	c #F9CB63",
"(@	c #F5A538",
"_@	c #FBD970",
":@	c #F7BE56",
"<@	c #F49A22",
"[@	c #F59D20",
"}@	c #FBDC73",
"|@	c #F8C75F",
"1@	c #F7B148",
"2@	c #F49D2C",
"3@	c #FBE378",
"4@	c #F9CC63",
"5@	c #F7C058",
"6@	c #F7B84F",
"7@	c #F5B046",
"8@	c #F5A83D",
"9@	c #F4A73A",
"                      . + @ # # # # # # # # # # # # # # # # # # # # # $ % & *     * & % $ # # # # # # # # # # # # # # # # = - ; ",
"                    > , ' = # # # # # # # # # # # # # # # # # # # # # # ) ! >     > ~ ) # # # # # # # # # # # # # # # # # # @ { ",
"                    ] ^ = # # # # # # # # # # # # # # # # # # # # # # # = / (     ( / = # # # # # # # # # # # # # # # # # # # $ ",
"                    ( _ = # # # # # # # # # # # # # # # # # # # # # # # # : &     & < # # # # # # # # # # # # # # # # # # # # # ",
"                    ( [ = # # # # # # # # # # # # # # # # # # # # # # # # $ } | | } $ # # # # # # # # # # # # # # # # # # # # # ",
"                    1 2 # # # # # # # # # # 3 4 5 6 7 8 9 0 0 a a 0 0 b 8 7 7 c d e # # # # # # # # # # # # # # # # # # # # # # ",
"                  * ; @ # # # # # # = f g h i j j j j j j j j j j j j j j j j j j a h g f = # # # # # # # # # # # # # # # # # # ",
"                  k + = # # # 3 l m a j j j j j j j j j j j j j j j j j j j j j j j j j j i m l 3 # # # # # # # # # # # # # # # ",
"                * n ' # # o 6 p j j j j j j j j j j j j j j j j j j j j j j j j j j j j j j j j q r s # # # # # # # # # # # # # ",
"                1 % = t u i j j j j j j j j j j j j j j j j j j j j j j j j j j j j j j j j j j j j i u t # # # # # # # # # # # ",
"              v w @ l 0 j j j j j j j j j j j j j j j j j j j j j j j j j j j j j j j j j j j j j j j j x y # # # # # # # # # # ",
"          ( n w e m j j j j j j j z A B C j j j j j j j j j j j j j j j j j j j j j j j j j j j j j j j j j m 3 # # # # # # # # ",
"  D v E F G H I J j j j j j j j j K L L M j j j j j j j j j j N O P Q j j j j j j j j j j j j j j j j j j j j J I # # # # # # # ",
"R S T [ U $ V 0 j j j j j j j j j W X Y Z j j j j j j j j j j X L L ` j j j j j  ...+.@.#.j j j j j j j j j j j 0 s # # # # # # ",
"$.) $ = = t 0 j j j j j j j j j j j j j j j j j j j j j j j j %.&.Z *.j j j j j =.L L L -.j j j j j j j j j j j j 0 s # # # # # ",
") # # # # 8 j j j j j j j j j j j j j j j j j j j j j j j j j j j j j j j j j j ;.>.,.'.).j j j j j j j j j j j j j 8 # # # # # ",
"# # # # l j j j j j j j j j j j j j Q B !.;.j j j j j j j j j j j j j j j j j j j j j j j j j j j j j j j j j j j j j l # # # # ",
"# # # # 0 j j j j j j j j j j j j ~.{.L L Y j j j j j j j j j j j j j j j j j j j j j j j j j j j j j j j j j j j j j ].# # # # ",
"# # # ^.j j j j j j j j j j j j j  ./.L (.P j j j j j j j _.:.O Q j j j j j j j j j j j <.[.}.|.j j j j j j j j j j j j ^.# # # ",
"# # # 1.j j j j j j j j j j j j j j j |.2.j j j j j j j j 3.L L 4.j j j j j j j j j j 5.L L L 6.7.j j j j j j j j j j j u # # # ",
"# # # 8 j j j j j j j j j j j j j j j j j j j j j j j j j 8.9.}.;.j j j j j j j j j j 0.L L L a.b.j j j j j j j j j j j 8 # # c.",
"# # # d.j j j j j j j j j j j j j j j j j j j j j j j j j j j j j j j j j j j j j j j |.e.f.g.h.j j j j j j j j j j j j i.= @ j.",
"# # # k.j j j j j j j j j j j j j j j j j j j j j j j j j j j j j j j j j j j j j j j j j j j j j j j j j j j j j j j j l.m.S R ",
"# # # n.j j j j j j j j z b.%.j j j j j j j j j j j j j j j j j j o.p.e.|.j j j j j j j j j j j j j j j j j j j j j j j q.r.D   ",
"# # # s.j j j j j j t.4.a.L L @.u.j j j j j j j j j j j j j j j j v.L L p.j j j j j j j j j j j j j j j j j j j j j j j w.      ",
"# # # x.*.j j j j j _.L L L L L O j j j j |.9.y.[.7.j j j j j j j |.z.A.2.j j j j j j j j j j B.g.&.|.j j j j j j j j *.C.      ",
"# # # D.E.j j j j j t.F.G.L L H.b.j j j I.J.L L L a.K.j j j j j j j j j j j j j j j j j j j K.L L L 5.j j j j j j j j L.M.      ",
"# # # D.N.Q j j j j j j 8.~.I.j j j j j !.L L L L L =.j j j j j j j j j j j j j j j j j j j z O.P.X Q.j j j j j j j  .R.S.| & > ",
"# # # D.L 3.2.j j j j j j j j j j j j j j T.H.U.+.V.2.j j j j j j j j j j j j j j j j j j j j j j j j j j j j j j 2.3.L D.' % F ",
"# # # D.L L '.j j j j j j j j j j j j j j j j j j j j j j j j j j j j j W.X.K :.Y.j j j j j j j j j j j j j j j j X.L L D.# $ Z.",
"# # # D.L L L v.t.j j j j j j j j j j j j j j j j j j j j j j j j j j K.`.L L L a.I.j j j j j j j j j j j j j j f.L L L D.# # $ ",
"# # # D.L L L L X C j j j j j j j j j j j j j j j j j j j j j j j j j Y. +L L L .+++j j j j j j j j j j j j 8.@+L L L L D.# # # ",
"# # # D.L L L L L #+$+j j j j j j j j j j j j j j j j Y.%+B Q j j j j j u.&+*+T.%.j j j j j j j j j j j j $+=+L L L L L D.# # # ",
"# # # D.L L L L L L L ..I.j j j j j j j j j j j j j O L L L G.}.j j j j j j j j j j j j j j j j j j j I...L L L L L L L D.# # # ",
"# # # D.L L L L L L L L {.f.-+j j j j j j j j j j j 0.L L L L ;+j j j j j j j j j j j j j j j j j b.f.{.L L L L L L L L D.# # # ",
"# # # D.L L L L L L L L L L `.@+>+;.j j j j j j j j ++,+'+X &+2.j j j j j j j j j j j j j j ;.}.)+`.L L L L L L L L L L D.# # # ",
"# # # D.L L L !+~+{+L L L L L L L ]+^+9.C j j j j j j j j j j j j j j j j j j j j j j %.9.5.R.L L L L L L L L L L L L L D.# # # ",
"# # # D.L L /+(+(+_+L L L L L L L L L L `.-.^+:+<+Q j j j j j j j j j j j j Q <+[+^+-.`.L L L L L L L L L L L L L L L L D.# # # ",
"= # # D.L L L }+|+1+L L L L L L L L L L L L L L L L {.J.H.'+3.,.,.3.'+2+J.{.L L L L L L L L L L L L L L L L 3+4+5+6+L L D.# # # ",
": # # 7+L L L L L L L L L L L L L L L L L L L L L L L L L L L L L L L L L L L L L L L L L L L L L L L L L L 8+(+(+9+L L 7+# # # ",
"0+- c.a+L L L L L L L L L L L L L L L L L L L L L L L L L L L L L L L L L L L L L L L L L L L L L L L L L L _+(+(+b+L L c+# # # ",
"] d+e+f+L L L L L L L L L L L L L L L L L L L L L L L L L L L L L L L L L L L L L L L L L L L L L L L L L L g+h+i+j+L L k+# # # ",
"  > ] l+L L L L L L L L L L L m+n+j+L L L L L L L L L L L L L L L o+p+L L L L L L L L L L L L L L L L L L L L L L L L L q+# # # ",
"      r+/+L L L L L L L L L s+(+(+t+L L L L L L L L L L L L L L 1+(+(+s+L L L L L L L L L L L L L L L L L L L L L L L /+u+# # # ",
"      v+w+L L L L L L L L L x+(+(+(+y+L L L L L L L L L L L L L s+(+(+w+L L L L L o+_+z+s+L L L L L L L L L L L L L L w+A+# # # ",
"      B+~+C+L L L L L L L L D+(+(+E+L L L L L L L L L L L L L L j+w+F+G+L L L L C+(+(+(+(+n+L L L L L L L L L L L L C+~+H+# # # ",
"D I+} J+K+L+M+L L L L L L L L N+O+L L L L L L L L L L L L L L L L L L L L L L L P+(+(+(+(+E+L L L L j+O+y+L L L L M+Q+R+# # # # ",
"S+T+$ # U+(+x+L L L L L L L L L L L L L L L L L L L L L L L L L L L L L L L L L m+(+(+(+(+w+L L L L 1+(+o+L L L j+x+(+U+# # # # ",
"V+= # # # W+(+x+j+L L L L L L L L L L L L L L L L L L L L L L L L L L L L L L L L h+(+(+_+G+L L L L M+1+j+L L j+x+(+W+# # # # # ",
"= # # # # l X+(+L+C+L L L L L L L L L L L L L L L L o+Y+o+L L L L L L L L L L L L L Z+`+L L L L L L L L L L g+Q+(+ @l # # # # # ",
"# # # # # # .@ @(++@@@L L L L L L L L L L L L L L L Q+(+Q+L L L L L L L L L L L L L L L L L L L L L L L L P++@(+#@7 # # # # # # ",
"# # # # # # # .@$@(+(+%@&@L L L L L L L L L L L L L s++@s+L L L L L L L L L L L L L L L L L L L L L L &@*@(+(+$@.@# # # # # # # ",
"# # # # # # # # =@-@(+(+(+t+O+L L L L L L L L L L L L L L L L L L L L L L L L L L L L L L L L L L O+x+(+(+(+;@=@# # # # # # # # ",
"# # # # # # # # # # >@,@(+(+(+L+'@6+L L L L L L L L L L L L L L L L L L L L L L L L L L L L 6+'@L+(+(+(+)@!@# # # # # # # # # # ",
"# # # # # # # # # # # ^.~@{@(+(+(+(+*@i+]@y+L L L L L L L L L L L L L L L L L L L L y+]@i+*@(+(+(+(+{@^@^.# # # # # # # # # # # ",
"# # # # # # # # # # # # # l /@(@(+(+(+(+(+~+*@9+{+m+Z+j+L L L L L L L L j+g+m+{+9+*@~+(+(+(+(+(+(@/@l # # # # # # # # # # # # # ",
"# # # # # # # # # # # # # # # t _@:@{@(+(+(+(+(+(+(+(+(+<@|+[@L+L+[@|+<@(+(+(+(+(+(+(+(+(+{@:@_@t # # # # # # # # # # # # # # # ",
"# # # # # # # # # # # # # # # # # # t }@|@1@2@(+(+(+(+(+(+(+(+(+(+(+(+(+(+(+(+(+(+2@1@|@}@t # # # # # # # # # # # # # # # # # # ",
"# # # # # # # # # # # # # # # # # # # # # # t 3@U+4@5@6@7@8@9@)@)@9@8@7@6@5@4@U+3@t # # # # # # # # # # # # # # # # # # # # # # ",
"# # # # # # # # # # # # # # # # # # # # # # # # # # # # # # # # # # # # # # # # # # # # # # # # # # # # # # # # # # # # # # # # ",
"# # # # # # # # # # # # # # # # # # # # # # # # # # # # # # # # # # # # # # # # # # # # # # # # # # # # # # # # # # # # # # # # ",
"$ # # # # # # # # # # # # # # # # # # # # # # # # # # # # # # # # # # # # # # # # # # # # # # # # # # # # # # # # # # # # # # $ ",
"H @ # # # # # # # # # # # # # # # # # # # # # # # # # # # # # # # # # # # # # # # # # # # # # # # # # # # # # # # # # # # # @ { ",
"; - = # # # # # # # # # # # # # # # # # # # # # # # # # # # # # # # # # # # # # # # # # # # # # # # # # # # # # # # # # # = - ; "};
