/* XPM */
static char * cheese_xpm[] = {
"64 64 110 2",
"  	c #F9E650",
". 	c #F9E756",
"+ 	c #FBEB71",
"@ 	c #FDED7F",
"# 	c #FDEE82",
"$ 	c #FDEE80",
"% 	c #FCEB74",
"& 	c #FAE758",
"* 	c #F9E651",
"= 	c #FDEE81",
"- 	c #FCEC79",
"; 	c #FAE860",
"> 	c #F9E652",
", 	c #FAE963",
"' 	c #FCED7D",
") 	c #FDED7E",
"! 	c #FBE968",
"~ 	c #FBE969",
"{ 	c #FCEC75",
"] 	c #F9E653",
"^ 	c #FBEA6D",
"/ 	c #FBEB73",
"( 	c #F9E654",
"_ 	c #FCEB72",
": 	c #FCEC7A",
"< 	c #FCED7A",
"[ 	c #FDEC76",
"} 	c #FBEA6A",
"| 	c #FAE85D",
"1 	c #FAE757",
"2 	c #FCED7B",
"3 	c #FDEC7F",
"4 	c #F9E754",
"5 	c #FAE85F",
"6 	c #FAE759",
"7 	c #FBEA6E",
"8 	c #F9E755",
"9 	c #FAE85B",
"0 	c #FAE85E",
"a 	c #FBE967",
"b 	c #FCEC76",
"c 	c #FDED7C",
"d 	c #FDED7D",
"e 	c #F9E758",
"f 	c #FAE968",
"g 	c #FBEA70",
"h 	c #FCEE7B",
"i 	c #FCEC78",
"j 	c #FCEA6D",
"k 	c #FBEA67",
"l 	c #FBEA68",
"m 	c #FCEB6F",
"n 	c #FDEE7F",
"o 	c #FBEB70",
"p 	c #FAE966",
"q 	c #F9E757",
"r 	c #FAE85A",
"s 	c #FBEB6D",
"t 	c #FBE962",
"u 	c #F9E753",
"v 	c #FCEB71",
"w 	c #FCEC77",
"x 	c #FCEE7D",
"y 	c #FDEE83",
"z 	c #F9E655",
"A 	c #FCEB73",
"B 	c #FBEA6B",
"C 	c #FBE863",
"D 	c #FAE655",
"E 	c #FBEB72",
"F 	c #F9E859",
"G 	c #FAE964",
"H 	c #FCEB70",
"I 	c #F9E858",
"J 	c #F9E759",
"K 	c #FBEA6F",
"L 	c #FCED7C",
"M 	c #FAE961",
"N 	c #FBE966",
"O 	c #FAE864",
"P 	c #FAE75A",
"Q 	c #FBEB6F",
"R 	c #FCEA6F",
"S 	c #FAE75C",
"T 	c #FCEC73",
"U 	c #FCEC72",
"V 	c #FAE965",
"W 	c #FCED78",
"X 	c #FCEC74",
"Y 	c #FCEB75",
"Z 	c #FBEC75",
"` 	c #FCED79",
" .	c #FDEC7D",
"..	c #FBEA6C",
"+.	c #FBE862",
"@.	c #FAE962",
"#.	c #FDED80",
"$.	c #FBEA69",
"%.	c #F9E752",
"&.	c #FAE861",
"*.	c #FBE96B",
"=.	c #F9E85A",
"-.	c #FAE85C",
";.	c #FAE755",
">.	c #FDEC79",
",.	c #FBED7A",
"'.	c #FAE95F",
").	c #FCEB6E",
"!.	c #FBE965",
"~.	c #FAE756",
"                      . + @ # # # # # # # # # # # # # # # # # # # # # $ % & *     * & % $ # # # # # # # # # # # # # # # # = - ; ",
"                    > , ' = # # # # # # # # # # # # # # # # # # # # # # ) ! >     > ~ ) # # # # # # # # # # # # # # # # # # @ { ",
"                    ] ^ = # # # # # # # # # # # # # # # # # # # # # # # = / (     ( / = # # # # # # # # # # # # # # # # # # # $ ",
"                    ( _ = # # # # # # # # # # # # # # # # # # # # # # # # : &     & < # # # # # # # # # # # # # # # # # # # # # ",
"                    ( [ = # # # # # # # # # # # # # # # # # # # # # # # # $ } | | } $ # # # # # # # # # # # # # # # # # # # # # ",
"                    1 2 # # # # # # # # # # # # # # # # # # # # # # # # # # 3 % % @ # # # # # # # # # # # # # # # # # # # # # # ",
"                  * ; @ # # # # # # # # # # # # # # # # # # # # # # # # # # # = = # # # # # # # # # # # # # # # # # # # # # # # ",
"                  4 + = # # # # # # # # # # # # # # # # # # # # # # # # # # # # # # # # # # # # # # # # # # # # # # # # # # # # ",
"                * 5 ' # # # # # # # # # # # # # # # # # # # # # # # # # # # # # # # # # # # # # # # # # # # # # # # # # # # # # ",
"                1 % = # # # # # # # # # # # # # # # # # # # # # # # # # # # # # # # # # # # # # # # # # # # # # # # # # # # # # ",
"              6 7 @ # # # # # # # # # # # # # # # # # # # # # # # # # # # # # # # # # # # # # # # # # # # # # # # # # # # # # # ",
"          ( 5 7 @ # # # # # # # # # # # # # # # # # # # # # # # # # # # # # # # # # # # # # # # # # # # # # # # # # # # # # # # ",
"  8 6 9 0 a b = # # # # # # # # # # # # = ) c d @ = # # # # # # # # # # # # # # # # # # # # # # # # # # # # # # # # # # # # # # ",
"e f g [ h $ = # # # # # # # # # # # = ) i j k l m < n # # # # # # # # # # # # # # # # # # # # # # # # # # # # # # # # # # # # # ",
"o ) $ = = # # # # # # # # # # # # = c p q 4 ] ] 8 r s ) # # # # # # # # # # # # # # # # # # # # # # # # # # # # # # # # # # # # ",
") # # # # # # # # # # # # # # # # 2 t 8           * q ~ $ # # # # # # # # # # # # # # # # # # # # # # # # # # # # # # # # # # # ",
"# # # # # # # # # # # # # # # # $ ! u                 e v = # # # # # # # # # # # # # # # # # # # # # # # # # # # # # # # # # # ",
"# # # # # # # # # # # # # # # = w &                   * 5 x # # # # # # # # # # # # # # # y y # # # # # # # # # # # # # # # # # ",
"# # # # # # # # # # # # # # # $ } >                     z { = # # # # # # # # # # # # = - A b n # # # # # # # # # # # # # # # # ",
"# # # # # # # # # # # # # # # @ 5 *                     ] B $ # # # # # # # # # # # # c C D 9 E = # # # # # # # # # # # # # # # ",
"# # # # # # # # # # # # # # # @ F                       > G $ # # # # # # # # # # # = H 4   * 0 @ # # # # # # # # # # # # # # d ",
"# # # # # # # # # # # # # # # @ I                       > , $ # # # # # # # # # # # $ B ]     J @ # # # # # # # # # # # # = @ K ",
"# # # # # # # # # # # # # # # @ r                       > p $ # # # # # # # # # # # = % 8 * > , $ # # # # # # # # # # = L E f e ",
"# # # # # # # # # # # # # # # $ M *                     ] 7 $ # # # # # # # # # # # # ) ^ M N i = # # # # # # # # # # L O P 8   ",
"# # # # # # # # # # # # # # # = Q ]                     1 i = # # # # # # # # # # # # # ) i : = # # # # # # # # # # = E ]       ",
"# # # # # # # # # # # # # # # # 2 |                   > N @ # # # # # # # # # # # # # # # # # # # # # # # # # # # # $ ^ ]       ",
"# # # # # # # # # # # # # # # # = R &               * | i = # # # # # # # # # # # # # # # # # # # # # # # # # # # # = % e       ",
"# # # # # # # # # # # # # # # # # n B 6 >         ( S T = # # # # # # # # # # # # # # # # # # # # # # # # # # # # # # @ } | & > ",
"# # # # # # # # # # # # # # # # # # @ U ; . 4 8 e V i $ # # # # # # # # # # # # # # # # # # # # # # # # # # # # # # # # $ ' % 0 ",
"# # # # # # # # # # # # # # # # # # # $ L W X Y < ' = # # # # # # # # # # # # # # # # # # # # # # # # # # # # # # # # # # # $ Z ",
"# # # # # # # # # # # # # # # # # # # # # = $ $ # # # # # # # # # # # # # # # # # # # # # # # # # # # # # # # # # # # # # # # $ ",
"# # # # # # # # # # # # # # # # # # # # # # # # # # # # # # # # # # # # # # # # # # # # # # # # # # # # # # # # # # # # # # # # ",
"# # # # # # # # # # # # # # # # # # # # # # # # # # # # # # # # # # # # # # # # # # # # # # # # # # # # # # # # # # # # # # # # ",
"# # # # # # # # # # # # # # # # # # # # # # # # # # # # # # # # # # # # # # # # # # # # # = $ $ # # # # # # # # # # # # # # # # ",
"# # # # # # # # # # # # # # # # # # # # # # # # # # # # # # # # # # # # # # # # # # # @ L i X Y ` ' $ # # # # # # # # # # # # # ",
"# # # # # # # # # # # # # # # # # # # # # # # # # # # # # # # # # # # # # # # # # =  ...| 8 4 8 q M U @ # # # # # # # # # # # # ",
"# # # # # # # # # # # # # # # # # # # # # # # # # # # # # # # # # # # # # # # # = < +.. >         ] & ! d # # # # # # # # # # # ",
"# # # # # # # # # # # # # # # # # # # # # # # # # # # # # # # # # # # # # # # # 2 @.]                 . l #.# # # # # # # # # # ",
"= # # # # # # # # # # # # # # # # # # # # # # # # # # # # # # # # # # # # # # $ $.%.                    1 _ = # # # # # # # # # ",
": # # # # # # # # # # # # # # # = : i d # # # # # # # # # # # # # # # # # # = w 1                       * 5 ' # # # # # # # # # ",
"$.- d = # # # # # # # # # # # = i N M ^ ) # # # # # # # # # # # # # # # # # $ $.>                         8 { = # # # # # # # # ",
"] &.*.b $ # # # # # # # # # # $ , > * 8 X = # # # # # # # # # # # # # # # # @ | *                         > } $ # # # # # # # # ",
"  > ] P - = # # # # # # # # # @ =.    ] } $ # # # # # # # # # # # # # # # # ) q                           * &.$ # # # # # # # # ",
"      ( Q = # # # # # # # # # @ 0 *   4 m = # # # # # # # # # # # # # # # # 2 8                           * | n # # # # # # # # ",
"      ] K = # # # # # # # # # = / -.;.C c # # # # # # # # # # # # # # # # # 2 8                           * 0 @ # # # # # # # # ",
"      | - = # # # # # # # # # # n b A - = # # # # # # # # # # # # # # # # # d .                           * &.n # # # # # # # # ",
"8 C } A $ # # # # # # # # # # # # y y # # # # # # # # y # # # # # # # # # # n | *                         > $.$ # # # # # # # # ",
"N >.$ # # # # # # # # # # # # # # # # # # # # # # = 2 ` L = # # # # # # # # $ } >                         ;.Y = # # # # # # # # ",
",.= # # # # # # # # # # # # # # # # # # # # # # = : a '.$.c # # # # # # # # = - e                       * 5 ) # # # # # # # # # ",
"= # # # # # # # # # # # # # # # # # # # # # # # $ ~ ( * 8 ).$ # # # # # # # # $ f 4                     . U = # # # # # # # # # ",
"# # # # # # # # # # # # # # # # # # # # # # # # n 5 *   > V $ # # # # # # # # # L M >                 4 } @ # # # # # # # # # # ",
"# # # # # # # # # # # # # # # # # # # # # # # # $ G >   ] } $ # # # # # # # # # = < !.(             1 ..L # # # # # # # # # # # ",
"# # # # # # # # # # # # # # # # # # # # # # # # = { '.& @.- = # # # # # # # # # # # < Q @.r ~.1 -.k A d # # # # # # # # # # # # ",
"# # # # # # # # # # # # # # # # # # # # # # # # # $ { v w = # # # # # # # # # # # # # $ i _ o + X 2 # # # # # # # # # # # # # # ",
"# # # # # # # # # # # # # # # # # # # # # # # # # # # # # # # # # # # # # # # # # # # # # # # # # # # # # # # # # # # # # # # # ",
"# # # # # # # # # # # # # # # # # # # # # # # # # # # # # # # # # # # # # # # # # # # # # # # # # # # # # # # # # # # # # # # # ",
"# # # # # # # # # # # # # # # # # # # # # # # # # # # # # # # # # # # # # # # # # # # # # # # # # # # # # # # # # # # # # # # # ",
"# # # # # # # # # # # # # # # # # # # # # # # # # # # # # # # # # # # # # # # # # # # # # # # # # # # # # # # # # # # # # # # # ",
"# # # # # # # # # # # # # # # # # # # # # # # # # # # # # # # # # # # # # # # # # # # # # # # # # # # # # # # # # # # # # # # # ",
"# # # # # # # # # # # # # # # # # # # # # # # # # # # # # # # # # # # # # # # # # # # # # # # # # # # # # # # # # # # # # # # # ",
"# # # # # # # # # # # # # # # # # # # # # # # # # # # # # # # # # # # # # # # # # # # # # # # # # # # # # # # # # # # # # # # # ",
"$ # # # # # # # # # # # # # # # # # # # # # # # # # # # # # # # # # # # # # # # # # # # # # # # # # # # # # # # # # # # # # # $ ",
"b @ # # # # # # # # # # # # # # # # # # # # # # # # # # # # # # # # # # # # # # # # # # # # # # # # # # # # # # # # # # # # @ { ",
"; - = # # # # # # # # # # # # # # # # # # # # # # # # # # # # # # # # # # # # # # # # # # # # # # # # # # # # # # # # # # = - ; "};
