/* XPM */
static char * crew_chizz_xpm[] = {
"64 64 318 2",
"  	c #F9E650",
". 	c #F9E756",
"+ 	c #FBEB71",
"@ 	c #FDED7F",
"# 	c #FDEE82",
"$ 	c #FDEE80",
"% 	c #FCEB74",
"& 	c #FAE758",
"* 	c #F9E651",
"= 	c #FDEE81",
"- 	c #FCEC79",
"; 	c #FAE860",
"> 	c #F9E652",
", 	c #FAE963",
"' 	c #FCED7D",
") 	c #FDED7E",
"! 	c #FBE968",
"~ 	c #FBE969",
"{ 	c #FCEC75",
"] 	c #F9E653",
"^ 	c #FBEA6D",
"/ 	c #FBEB73",
"( 	c #F9E654",
"_ 	c #FCEB72",
": 	c #FCEC7A",
"< 	c #FCED7A",
"[ 	c #FDEC76",
"} 	c #933436",
"| 	c #791837",
"1 	c #710E36",
"2 	c #7C1B37",
"3 	c #953638",
"4 	c #FBEA6A",
"5 	c #FAE85D",
"6 	c #FAE757",
"7 	c #FCED7B",
"8 	c #A34737",
"9 	c #710F36",
"0 	c #6C0936",
"a 	c #B95E38",
"b 	c #CE7439",
"c 	c #882737",
"d 	c #963837",
"e 	c #FDEC7F",
"f 	c #A04237",
"g 	c #8C2C37",
"h 	c #882837",
"i 	c #F19C3A",
"j 	c #F29D3A",
"k 	c #F09B3A",
"l 	c #C16739",
"m 	c #DE873A",
"n 	c #F9E754",
"o 	c #9A3B38",
"p 	c #C46A38",
"q 	c #862636",
"r 	c #D67E39",
"s 	c #F39D3A",
"t 	c #FAE85F",
"u 	c #A04138",
"v 	c #D17839",
"w 	c #DC863A",
"x 	c #F29E3A",
"y 	c #FAE759",
"z 	c #FBEA6E",
"A 	c #F29C3A",
"B 	c #F9E755",
"C 	c #FAE85B",
"D 	c #FAE85E",
"E 	c #FBE967",
"F 	c #FCEC76",
"G 	c #F9E758",
"H 	c #FAE968",
"I 	c #FBEA70",
"J 	c #FCEE7B",
"K 	c #DE8739",
"L 	c #F29D39",
"M 	c #F19D3A",
"N 	c #FBEB70",
"O 	c #FDED7C",
"P 	c #CD7439",
"Q 	c #8A2B37",
"R 	c #D77F39",
"S 	c #EE9939",
"T 	c #8F2F37",
"U 	c #A94936",
"V 	c #FBE962",
"W 	c #D37B39",
"X 	c #8E2E37",
"Y 	c #CE7639",
"Z 	c #EF9A3A",
"` 	c #822136",
" .	c #6D0A36",
"..	c #791737",
"+.	c #872535",
"@.	c #CB7239",
"#.	c #852336",
"$.	c #963737",
"%.	c #9C3F38",
"&.	c #771435",
"*.	c #7D1934",
"=.	c #6E0C36",
"-.	c #C76833",
";.	c #FCEC77",
">.	c #F39E39",
",.	c #862637",
"'.	c #D88039",
").	c #B65B38",
"!.	c #6D0936",
"~.	c #B14C2E",
"{.	c #C35F2B",
"].	c #A4402E",
"^.	c #761235",
"/.	c #8F2B31",
"(.	c #C9662D",
"_.	c #8C2D37",
":.	c #D27939",
"<.	c #BF6439",
"[.	c #AA462E",
"}.	c #AA452E",
"|.	c #791634",
"1.	c #8C2932",
"2.	c #C45F2B",
"3.	c #C35E2B",
"4.	c #C8652C",
"5.	c #F19D3B",
"6.	c #AC5038",
"7.	c #CA7138",
"8.	c #C26738",
"9.	c #903137",
"0.	c #731236",
"a.	c #932F31",
"b.	c #7D1A34",
"c.	c #8A2633",
"d.	c #C25D2B",
"e.	c #A43F2F",
"f.	c #BD592C",
"g.	c #C4602B",
"h.	c #D57531",
"i.	c #D98239",
"j.	c #C46B38",
"k.	c #903237",
"l.	c #C86F39",
"m.	c #7A1836",
"n.	c #751135",
"o.	c #882433",
"p.	c #A23D2F",
"q.	c #7F1C33",
"r.	c #B9542D",
"s.	c #C5602B",
"t.	c #CC6A2D",
"u.	c #D27330",
"v.	c #FDED7D",
"w.	c #C76E39",
"x.	c #892937",
"y.	c #D57D39",
"z.	c #ED9639",
"A.	c #7C1B36",
"B.	c #862232",
"C.	c #A8432E",
"D.	c #B8532C",
"E.	c #CA662F",
"F.	c #D26F43",
"G.	c #D67153",
"H.	c #F9E759",
"I.	c #FBEA6F",
"J.	c #7E1E37",
"K.	c #771436",
"L.	c #811D33",
"M.	c #A7432F",
"N.	c #7C1834",
"O.	c #6E0B36",
"P.	c #B7512C",
"Q.	c #C15C2C",
"R.	c #B8522D",
"S.	c #C8642D",
"T.	c #D27546",
"U.	c #DC8878",
"V.	c #E59ECB",
"W.	c #E8A7F8",
"X.	c #FCED7C",
"Y.	c #FBEB72",
"Z.	c #973737",
"`.	c #983A37",
" +	c #781535",
".+	c #7E1A34",
"++	c #B5512D",
"@+	c #A13D30",
"#+	c #C6622B",
"$+	c #D0713D",
"%+	c #D98269",
"&+	c #E297B1",
"*+	c #E8A7F4",
"=+	c #E8A6F7",
"-+	c #FAE864",
";+	c #FAE75A",
">+	c #8E2D35",
",+	c #B34F2D",
"'+	c #A5412F",
")+	c #761335",
"!+	c #CD6C36",
"~+	c #D77F5D",
"{+	c #E1939D",
"]+	c #E8A5EC",
"^+	c #FDF1D8",
"/+	c #FEF4D7",
"(+	c #953732",
"_+	c #AF4A2D",
":+	c #AB472E",
"<+	c #7A1735",
"[+	c #CA6730",
"}+	c #D57950",
"|+	c #DE8D89",
"1+	c #E7A2DC",
"2+	c #852233",
"3+	c #8D2A32",
"4+	c #A6422E",
"5+	c #BE5A2B",
"6+	c #C7622C",
"7+	c #CC6531",
"8+	c #CB5238",
"9+	c #D26585",
"0+	c #E9A7F9",
"a+	c #A4402F",
"b+	c #821F33",
"c+	c #BC572C",
"d+	c #C6602C",
"e+	c #CC6530",
"f+	c #CC5936",
"g+	c #C4383E",
"h+	c #BA1344",
"i+	c #B81146",
"j+	c #DF89D5",
"k+	c #E8A7F7",
"l+	c #C7652F",
"m+	c #C8652E",
"n+	c #BD5D31",
"o+	c #C7423C",
"p+	c #BB1944",
"q+	c #E59EED",
"r+	c #E9A7F8",
"s+	c #811F35",
"t+	c #C4632F",
"u+	c #C26030",
"v+	c #A84933",
"w+	c #7F1C35",
"x+	c #E7A4F5",
"y+	c #FBEC75",
"z+	c #E297E5",
"A+	c #D979C1",
"B+	c #E8A8F8",
"C+	c #C94685",
"D+	c #B91348",
"E+	c #DF8CD8",
"F+	c #E7A7F8",
"G+	c #BF2861",
"H+	c #E59DEC",
"I+	c #C12D67",
"J+	c #E293E1",
"K+	c #FAE961",
"L+	c #FCEC72",
"M+	c #BA174E",
"N+	c #CF5A9C",
"O+	c #D9599A",
"P+	c #BF265E",
"Q+	c #C43672",
"R+	c #C84382",
"S+	c #CE1342",
"T+	c #E7153D",
"U+	c #FBEA68",
"V+	c #FDED80",
"W+	c #C11244",
"X+	c #DD143F",
"Y+	c #B91145",
"Z+	c #BD1145",
"`+	c #C31244",
" @	c #CD1343",
".@	c #DC143F",
"+@	c #FBEA69",
"@@	c #C41243",
"#@	c #FAE861",
"$@	c #FBE96B",
"%@	c #E4153D",
"&@	c #FBEB6F",
"*@	c #DB143F",
"=@	c #FDEE7F",
"-@	c #D01342",
";@	c #C41244",
">@	c #FBE863",
",@	c #FCEB73",
"'@	c #B91146",
")@	c #E4153E",
"!@	c #FBE966",
"~@	c #FDEC79",
"{@	c #6C0937",
"]@	c #D61341",
"^@	c #FAE755",
"/@	c #FCEB75",
"(@	c #FBED7A",
"_@	c #C71244",
":@	c #E1143F",
"<@	c #CF1342",
"[@	c #B91046",
"}@	c #D4143F",
"|@	c #D31341",
"1@	c #D91441",
"2@	c #E6153D",
"3@	c #FBEA6C",
"4@	c #E5153D",
"5@	c #FAE85C",
"6@	c #FBEA67",
"7@	c #D71440",
"8@	c #FCEC74",
"9@	c #B81145",
"0@	c #E4143D",
"a@	c #B91147",
"b@	c #DB1440",
"c@	c #E5153E",
"                      . + @ # # # # # # # # # # # # # # # # # # # # # $ % & *     * & % $ # # # # # # # # # # # # # # # # = - ; ",
"                    > , ' = # # # # # # # # # # # # # # # # # # # # # # ) ! >     > ~ ) # # # # # # # # # # # # # # # # # # @ { ",
"                    ] ^ = # # # # # # # # # # # # # # # # # # # # # # # = / (     ( / = # # # # # # # # # # # # # # # # # # # $ ",
"                    ( _ = # # # # # # # # # # # # # # # # # # # # # # # # : &     & < # # # # # # # # # # # # # # # # # # # # # ",
"                    ( [ = # # # # # # # # # # # # # } | 1 2 3 # # # # # # $ 4 5 5 4 $ # # # # # # # # # # # # # # # # # # # # # ",
"                    6 7 # # # # # # # # # # # # 8 9 0 0 0 a b c d # # # # # e % % @ # # # # # # # # # # # # # # # # # # # # # # ",
"                  * ; @ # # # # # # # # # # # # f g 0 0 h i j k l m # # # # # = = # # # # # # # # # # # # # # # # # # # # # # # ",
"                  n + = # # # # # # # # # # # o k i p q r j j j j j j s # # # # # # # # # # # # # # # # # # # # # # # # # # # # ",
"                * t ' # # # # # # # # # # # u v j j j j j j j j j j j j j j # # # # # # # # # # # # # # # # # # # # # # # # # # ",
"                6 % = # # # # # # # # # # # w j j j j j j j j j j j j j j j j x # # # # # # # # # # # # # # # # # # # # # # # # ",
"              y z @ # # # # # # # # # # # A j j j j j j j j j j j j j j j j j j j # # # # # # # # # # # # # # # # # # # # # # # ",
"          ( t z @ # # # # # # # # # # # # j j j j j j j j j j j j j j j j j j j j j j # # # # # # # # # # # # # # # # # # # # # ",
"  B y C D E F = # # # # # # # # # # # # j j j j j j j j j j j j j j j j j j j j j j j j j # # # # # # # # # # # # # # # # # # # ",
"G H I [ J $ = # # # # # # # # # # # = ) j j j j j j j j j j j j j j j j j j j j j j j K i L M # # # # # # # # # # # # # # # # # ",
"N ) $ = = # # # # # # # # # # # # = O j j j j j j j j j j j j j j j j j j j j j j j P 0 Q R S T U # # # # # # # # # # # # # # # ",
") # # # # # # # # # # # # # # # # 7 V j j j j j j j j j j j j j j j j j j W X Y j Z ` 0 0  ...0 0 +.# # # # # # # # # # # # # # ",
"# # # # # # # # # # # # # # # # $ ! j j j j j j j j j j j j j j K @.j j k #.0 0 $.%.0 0 0 0 &.*.0 0 =.-.# # # # # # # # # # # # ",
"# # # # # # # # # # # # # # # = ;.>.j j j j j j j j j k j j j i ,.0 X '.).0 0 0 0 0 0 0 0 !.~.{.].^./.(.# # # # # # # # # # # # ",
"# # # # # # # # # # # # # # # $ 4 j j j j j j j j j i _.q :.j <.0 0 0 0 0 0 0 0 !.[.}.|.0 1.2.2.2.3.3.4.# # # # # # # # # # # # ",
"# # # # # # # # # # # # # # # @ 5.j j j j i 6.7.j j 8.0 0  .9.0.0 0 0 0 a.b.0 0 c.2.2.d.e.f.2.2.2.2.g.h.# # # # # # # # # # # # ",
"# # # # # # # # # # # # # # # @ j i.i j j j.0 0 k.l.m.0 0 0 0 n.0 0 0 o.2.3.p.q.r.2.2.2.2.2.2.s.t.u.# # # # # # # # # # # # # v.",
"# # # # # # # # # # # # # # # j w.0 x.y.z.A.0 0 0 0 0 0 0 0 B.{.C.&.=.D.2.2.2.2.2.2.2.2.E.F.G.H.@ # # # # # # # # # # # # = @ I.",
"# # # # # # # # # # # # # # # S J.0 0  .K.0 0 0 0 L.M.N.0 O.P.2.2.Q.R.2.2.2.2.2.S.T.U.V.W.W.W.W.$ # # # # # # # # # # = X.Y.H G ",
"# # # # # # # # # # # # # # Z.`.0 0 0 0  +.+0 0  .++2.3.@+p.2.2.2.2.2.2.#+$+%+&+*+W.W.W.W.W.W.W.W.=+# # # # # # # # # X.-+;+B   ",
"# # # # # # # # # # # # # >+0 0 0 0 0  .,+{.'+)+a.2.2.2.2.2.2.2.2.!+~+{+]+W.^+/+/+/+/+/+/+/+/+^+W.W.# # # # # # # # = Y.]       ",
"# # # # # # # # # # # # (+ . ._+:+<+0 /.2.2.2.2.{.2.2.2.2.[+}+|+1+W.W.W.W.W./+/+/+/+/+/+/+/+/+/+W.W.W.# # # # # # # $ ^ ]       ",
"# # # # # # # # # # # # 2+0 3+2.2.d.4+5+2.2.2.2.2.6+7+8+9+W.W.W.W.W.W.W.W.W./+/+/+/+/+/+/+/+/+/+W.W.W.0+# # # # # # = % G       ",
"# # # # # # # # # # # # a+b+c+2.2.2.2.2.2.d+e+f+g+h+i+i+j+W.W.W.W.W.W.W.W.W.^+/+/+/+/+/+/+/+/+^+W.W.W.k+# # # # # # # @ 4 5 & > ",
"# # # # # # # # # # # # l+2.2.2.2.g.m+n+o+p+i+i+i+i+i+i+q+W.W.W.W.W.W.W.W.W.W.W.W.W.W.W.W.W.W.W.W.W.W.r+# # # # # # # # $ ' % D ",
"# # # # # # # # # # # # s+t+m+u+v+w+0 0 i+i+i+i+i+i+i+i+x+W.W.W.W.W.W.W.W.W.W.W.W.W.W.W.W.W.W.W.W.W.W.W.# # # # # # # # # # $ y+",
"# # # # # # # # # # # # 0 0 0 0 0 0 0 0 i+i+i+i+i+i+i+i+z+W.W.W.W.W.W.W.W.W.W.W.W.W.W.W.W.W.W.W.W.W.W.W.# # # # # # # # # # # $ ",
"# # # # # # # # # # # # 0 0 0 0 0 0 0 0 i+i+i+i+i+i+i+i+A+W.W.W.W.W.W.W.W.W.W.W.W.W.W.W.W.W.W.W.W.W.W.B+# # # # # # # # # # # # ",
"# # # # # # # # # # # # 0 0 0 0 0 0 0 0 i+i+i+i+i+i+i+i+C+W.W.W.W.W.W.W.W.W.W.W.W.W.W.W.W.W.W.W.W.W.W.# # # # # # # # # # # # # ",
"# # # # # # # # # # # # 0 0 0 0 0 0 0 0 i+i+i+i+i+i+i+i+D+E+W.W.W.W.W.W.W.W.W.W.W.W.W.W.W.W.W.W.W.W.F+# # # # # # # # # # # # # ",
"# # # # # # # # # # # # 0 0 0 0 0 0 0 0 i+i+i+i+i+i+i+i+i+G+H+W.W.W.W.W.W.W.W.W.W.W.W.W.W.W.W.W.W.r+$ # # # # # # # # # # # # # ",
"# # # # # # # # # # # # 0 0 0 0 0 0 0 0 i+i+i+i+i+i+i+i+i+i+I+J+W.W.W.W.W.W.W.W.W.W.W.W.W.W.W.W.W.K+L+@ # # # # # # # # # # # # ",
"# # # # # # # # # # # # 0 0 0 0 0 0 0 0 i+i+i+i+i+i+i+i+i+i+i+M+N+J+W.W.W.W.W.W.W.W.W.W.W.W.J+O+  ] & ! v.# # # # # # # # # # # ",
"# # # # # # # # # # # # 0 0 0 0 0 0 0 0 i+i+i+i+i+i+i+i+i+i+i+i+i+i+P+Q+R+R+R+R+R+R+R+R+Q+P+S+T+      . U+V+# # # # # # # # # # ",
"= # # # # # # # # # # # 0 0 0 0 0 0 0 0 i+i+i+i+i+i+i+i+i+i+i+i+i+i+i+i+i+i+i+i+i+i+i+i+W+X+T+T+        6 _ = # # # # # # # # # ",
": # # # # # # # # # # # 0 0 0 0 0 0 0 0 i+i+i+i+i+i+i+i+i+i+i+i+i+i+i+i+i+i+i+Y+Z+`+ @.@T+T+T+T+        * t ' # # # # # # # # # ",
"+@- v.= # # # # # # # # 0 0 0 0 0 0 0 0 i+i+i+i+i+i+i+i+i+i+i+@@T+T+T+T+T+T+T+T+T+T+T+T+T+T+T+T+          B { = # # # # # # # # ",
"] #@$@F $ # # # # # # # 0 0 0 0 0 0 0 0 i+i+i+i+i+i+i+i+i+i+i+Z+T+T+T+T+T+T+T+T+T+T+T+T+T+T+T+T+          > 4 $ # # # # # # # # ",
"  > ] ;+- = # # # # # # 0 0 0 0 0 0 0 0 i+i+i+i+i+i+i+i+i+i+i+i+%@T+T+T+T+T+T+T+T+T+T+T+T+T+T+T+          * #@$ # # # # # # # # ",
"      ( &@= # # # # # # 0 0 0 0 0 0 0 0 i+i+i+i+i+i+i+i+i+i+i+i+*@T+T+T+T+T+T+T+T+T+T+T+T+T+T+T+          * 5 =@# # # # # # # # ",
"      ] I.= # # # # # # 0 0 0 0 0 0 0 0 i+i+i+i+i+i+i+i+i+i+i+i+-@T+T+T+T+T+T+T+T+T+T+T+T+T+T+T+          * D @ # # # # # # # # ",
"      5 - = # # # # # # 0 0 0 0 0 0 0 0 i+i+i+i+i+i+i+i+i+i+i+i+;@T+T+T+T+T+T+T+T+T+T+T+T+T+T+T+          * #@=@# # # # # # # # ",
"B >@4 ,@$ # # # # # # # 0 0 0 0 0 0 0 0 i+i+i+i+i+i+i+i+i+i+i+i+'@)@T+T+T+T+T+T+T+T+T+T+T+T+T+T+          > +@$ # # # # # # # # ",
"!@~@$ # # # # # # # # # {@0 0 0 0 0 0 0 i+i+i+i+i+i+i+i+i+i+i+i+i+]@T+T+T+T+T+T+T+T+T+T+T+T+T+T+          ^@/@= # # # # # # # # ",
"(@= # # # # # # # # # # # 0 0 0 0 0 0 0 i+i+i+i+i+i+i+i+i+i+i+i+i+_@T+T+T+T+T+T+T+T+T+T+T+T+T+T+        * t ) # # # # # # # # # ",
"= # # # # # # # # # # # # 0 0 0 0 0 0 0 i+i+i+i+i+i+i+i+i+i+i+i+i+'@:@T+T+T+T+T+T+T+T+T+T+T+T+T+        . L+= # # # # # # # # # ",
"# # # # # # # # # # # # # # 0 0 0 0 0 0 i+i+i+i+i+i+i+i+i+i+i+i+i+i+<@T+T+T+T+T+T+T+T+T+T+T+T+T+      n 4 @ # # # # # # # # # # ",
"# # # # # # # # # # # # # # # # 0 0 0 0 i+i+i+i+i+i+i+i+i+i+i+i+[@# # }@|@1@2@T+T+T+T+T+T+T+T+T+    6 3@X.# # # # # # # # # # # ",
"# # # # # # # # # # # # # # # # # # # # i+i+i+i+i+i+i+i+i+i+i+# # # # # # # # 4@T+T+T+T+T+T+T+T+5@6@,@v.# # # # # # # # # # # # ",
"# # # # # # # # # # # # # # # # # # # # i+i+i+i+i+i+i+i+i+i+# # # # # # # # # 7@T+T+T+T+T+T+T+T+8@7 # # # # # # # # # # # # # # ",
"# # # # # # # # # # # # # # # # # # # # i+i+i+i+i+i+i+i+i+i+# # # # # # # # # # T+T+T+T+T+T+T+T+# # # # # # # # # # # # # # # # ",
"# # # # # # # # # # # # # # # # # # # # i+i+i+i+i+i+i+i+i+i+# # # # # # # # # # T+T+T+T+T+T+T+T+# # # # # # # # # # # # # # # # ",
"# # # # # # # # # # # # # # # # # # # # i+i+i+i+i+i+i+i+i+i+# # # # # # # # # # 4@T+T+T+T+T+T+%@# # # # # # # # # # # # # # # # ",
"# # # # # # # # # # # # # # # # # # # # i+i+i+i+i+i+i+i+i+9@# # # # # # # # # # X+T+T+T+T+T+T+*@# # # # # # # # # # # # # # # # ",
"# # # # # # # # # # # # # # # # # # # # # i+i+i+i+i+i+i+i+# # # # # # # # # # # # %@T+T+T+T+0@# # # # # # # # # # # # # # # # # ",
"# # # # # # # # # # # # # # # # # # # # # # a@i+i+i+i+9@# # # # # # # # # # # # # # b@c@c@*@# # # # # # # # # # # # # # # # # # ",
"# # # # # # # # # # # # # # # # # # # # # # # # # # # # # # # # # # # # # # # # # # # # # # # # # # # # # # # # # # # # # # # # ",
"$ # # # # # # # # # # # # # # # # # # # # # # # # # # # # # # # # # # # # # # # # # # # # # # # # # # # # # # # # # # # # # # $ ",
"F @ # # # # # # # # # # # # # # # # # # # # # # # # # # # # # # # # # # # # # # # # # # # # # # # # # # # # # # # # # # # # @ { ",
"; - = # # # # # # # # # # # # # # # # # # # # # # # # # # # # # # # # # # # # # # # # # # # # # # # # # # # # # # # # # # = - ; "};
