/* XPM */
static char * hat (2)_xpm[] = {
"64 64 242 2",
"  	c None",
". 	c #933436",
"+ 	c #791837",
"@ 	c #710E36",
"# 	c #7C1B37",
"$ 	c #953638",
"% 	c #A34737",
"& 	c #710F36",
"* 	c #6C0936",
"= 	c #B95E38",
"- 	c #CE7439",
"; 	c #882737",
"> 	c #963837",
", 	c #A04237",
"' 	c #8C2C37",
") 	c #882837",
"! 	c #F19C3A",
"~ 	c #F29D3A",
"{ 	c #F09B3A",
"] 	c #C16739",
"^ 	c #DE873A",
"/ 	c #9A3B38",
"( 	c #C46A38",
"_ 	c #862636",
": 	c #D67E39",
"< 	c #F39D3A",
"[ 	c #A04138",
"} 	c #D17839",
"| 	c #DC863A",
"1 	c #F29E3A",
"2 	c #F29C3A",
"3 	c #DE8739",
"4 	c #F29D39",
"5 	c #F19D3A",
"6 	c #CD7439",
"7 	c #8A2B37",
"8 	c #D77F39",
"9 	c #EE9939",
"0 	c #8F2F37",
"a 	c #A94936",
"b 	c #D37B39",
"c 	c #8E2E37",
"d 	c #CE7639",
"e 	c #EF9A3A",
"f 	c #822136",
"g 	c #6D0A36",
"h 	c #791737",
"i 	c #872535",
"j 	c #CB7239",
"k 	c #852336",
"l 	c #963737",
"m 	c #9C3F38",
"n 	c #771435",
"o 	c #7D1934",
"p 	c #6E0C36",
"q 	c #C76833",
"r 	c #F39E39",
"s 	c #862637",
"t 	c #D88039",
"u 	c #B65B38",
"v 	c #6D0936",
"w 	c #B14C2E",
"x 	c #C35F2B",
"y 	c #A4402E",
"z 	c #761235",
"A 	c #8F2B31",
"B 	c #C9662D",
"C 	c #8C2D37",
"D 	c #D27939",
"E 	c #BF6439",
"F 	c #AA462E",
"G 	c #AA452E",
"H 	c #791634",
"I 	c #8C2932",
"J 	c #C45F2B",
"K 	c #C35E2B",
"L 	c #C8652C",
"M 	c #F19D3B",
"N 	c #AC5038",
"O 	c #CA7138",
"P 	c #C26738",
"Q 	c #903137",
"R 	c #731236",
"S 	c #932F31",
"T 	c #7D1A34",
"U 	c #8A2633",
"V 	c #C25D2B",
"W 	c #A43F2F",
"X 	c #BD592C",
"Y 	c #C4602B",
"Z 	c #D57531",
"` 	c #D98239",
" .	c #C46B38",
"..	c #903237",
"+.	c #C86F39",
"@.	c #7A1836",
"#.	c #751135",
"$.	c #882433",
"%.	c #A23D2F",
"&.	c #7F1C33",
"*.	c #B9542D",
"=.	c #C5602B",
"-.	c #CC6A2D",
";.	c #D27330",
">.	c #C76E39",
",.	c #892937",
"'.	c #D57D39",
").	c #ED9639",
"!.	c #7C1B36",
"~.	c #862232",
"{.	c #A8432E",
"].	c #B8532C",
"^.	c #CA662F",
"/.	c #D26F43",
"(.	c #D67153",
"_.	c #7E1E37",
":.	c #771436",
"<.	c #811D33",
"[.	c #A7432F",
"}.	c #7C1834",
"|.	c #6E0B36",
"1.	c #B7512C",
"2.	c #C15C2C",
"3.	c #B8522D",
"4.	c #C8642D",
"5.	c #D27546",
"6.	c #DC8878",
"7.	c #E59ECB",
"8.	c #E8A7F8",
"9.	c #973737",
"0.	c #983A37",
"a.	c #781535",
"b.	c #7E1A34",
"c.	c #B5512D",
"d.	c #A13D30",
"e.	c #C6622B",
"f.	c #D0713D",
"g.	c #D98269",
"h.	c #E297B1",
"i.	c #E8A7F4",
"j.	c #E8A6F7",
"k.	c #8E2D35",
"l.	c #B34F2D",
"m.	c #A5412F",
"n.	c #761335",
"o.	c #CD6C36",
"p.	c #D77F5D",
"q.	c #E1939D",
"r.	c #E8A5EC",
"s.	c #FDF1D8",
"t.	c #FEF4D7",
"u.	c #953732",
"v.	c #AF4A2D",
"w.	c #AB472E",
"x.	c #7A1735",
"y.	c #CA6730",
"z.	c #D57950",
"A.	c #DE8D89",
"B.	c #E7A2DC",
"C.	c #852233",
"D.	c #8D2A32",
"E.	c #A6422E",
"F.	c #BE5A2B",
"G.	c #C7622C",
"H.	c #CC6531",
"I.	c #CB5238",
"J.	c #D26585",
"K.	c #E9A7F9",
"L.	c #A4402F",
"M.	c #821F33",
"N.	c #BC572C",
"O.	c #C6602C",
"P.	c #CC6530",
"Q.	c #CC5936",
"R.	c #C4383E",
"S.	c #BA1344",
"T.	c #B81146",
"U.	c #DF89D5",
"V.	c #E8A7F7",
"W.	c #C7652F",
"X.	c #C8652E",
"Y.	c #BD5D31",
"Z.	c #C7423C",
"`.	c #BB1944",
" +	c #E59EED",
".+	c #E9A7F8",
"++	c #811F35",
"@+	c #C4632F",
"#+	c #C26030",
"$+	c #A84933",
"%+	c #7F1C35",
"&+	c #E7A4F5",
"*+	c #E297E5",
"=+	c #D979C1",
"-+	c #E8A8F8",
";+	c #C94685",
">+	c #B91348",
",+	c #DF8CD8",
"'+	c #E7A7F8",
")+	c #BF2861",
"!+	c #E59DEC",
"~+	c #C12D67",
"{+	c #E293E1",
"]+	c #BA174E",
"^+	c #CF5A9C",
"/+	c #D9599A",
"(+	c #BF265E",
"_+	c #C43672",
":+	c #C84382",
"<+	c #CE1342",
"[+	c #E7153D",
"}+	c #C11244",
"|+	c #DD143F",
"1+	c #B91145",
"2+	c #BD1145",
"3+	c #C31244",
"4+	c #CD1343",
"5+	c #DC143F",
"6+	c #C41243",
"7+	c #E4153D",
"8+	c #DB143F",
"9+	c #D01342",
"0+	c #C41244",
"a+	c #B91146",
"b+	c #E4153E",
"c+	c #6C0937",
"d+	c #D61341",
"e+	c #C71244",
"f+	c #E1143F",
"g+	c #CF1342",
"h+	c #B91046",
"i+	c #D4143F",
"j+	c #D31341",
"k+	c #D91441",
"l+	c #E6153D",
"m+	c #E5153D",
"n+	c #D71440",
"o+	c #B81145",
"p+	c #E4143D",
"q+	c #B91147",
"r+	c #DB1440",
"s+	c #E5153E",
"                                                                                                                                ",
"                                                                                                                                ",
"                                                                                                                                ",
"                                                                                                                                ",
"                                                    . + @ # $                                                                   ",
"                                                % & * * * = - ; >                                                               ",
"                                                , ' * * ) ! ~ { ] ^                                                             ",
"                                              / { ! ( _ : ~ ~ ~ ~ ~ ~ <                                                         ",
"                                            [ } ~ ~ ~ ~ ~ ~ ~ ~ ~ ~ ~ ~ ~ ~                                                     ",
"                                            | ~ ~ ~ ~ ~ ~ ~ ~ ~ ~ ~ ~ ~ ~ ~ ~ 1                                                 ",
"                                          2 ~ ~ ~ ~ ~ ~ ~ ~ ~ ~ ~ ~ ~ ~ ~ ~ ~ ~ ~                                               ",
"                                          ~ ~ ~ ~ ~ ~ ~ ~ ~ ~ ~ ~ ~ ~ ~ ~ ~ ~ ~ ~ ~ ~                                           ",
"                                        ~ ~ ~ ~ ~ ~ ~ ~ ~ ~ ~ ~ ~ ~ ~ ~ ~ ~ ~ ~ ~ ~ ~ ~ ~                                       ",
"                                        ~ ~ ~ ~ ~ ~ ~ ~ ~ ~ ~ ~ ~ ~ ~ ~ ~ ~ ~ ~ ~ ~ ~ 3 ! 4 5                                   ",
"                                      ~ ~ ~ ~ ~ ~ ~ ~ ~ ~ ~ ~ ~ ~ ~ ~ ~ ~ ~ ~ ~ ~ ~ 6 * 7 8 9 0 a                               ",
"                                      ~ ~ ~ ~ ~ ~ ~ ~ ~ ~ ~ ~ ~ ~ ~ ~ ~ ~ b c d ~ e f * * g h * * i                             ",
"                                    ~ ~ ~ ~ ~ ~ ~ ~ ~ ~ ~ ~ ~ ~ 3 j ~ ~ { k * * l m * * * * n o * * p q                         ",
"                                  r ~ ~ ~ ~ ~ ~ ~ ~ ~ { ~ ~ ~ ! s * c t u * * * * * * * * v w x y z A B                         ",
"                                  ~ ~ ~ ~ ~ ~ ~ ~ ~ ! C _ D ~ E * * * * * * * * v F G H * I J J J K K L                         ",
"                                M ~ ~ ~ ~ ! N O ~ ~ P * * g Q R * * * * S T * * U J J V W X J J J J Y Z                         ",
"                                ~ ` ! ~ ~  .* * ..+.@.* * * * #.* * * $.J K %.&.*.J J J J J J =.-.;.                            ",
"                              ~ >.* ,.'.).!.* * * * * * * * ~.x {.n p ].J J J J J J J J ^./.(.                                  ",
"                              9 _.* * g :.* * * * <.[.}.* |.1.J J 2.3.J J J J J 4.5.6.7.8.8.8.8.                                ",
"                            9.0.* * * * a.b.* * g c.J K d.%.J J J J J J e.f.g.h.i.8.8.8.8.8.8.8.8.j.                            ",
"                          k.* * * * * g l.x m.n.S J J J J J J J J o.p.q.r.8.s.t.t.t.t.t.t.t.t.s.8.8.                            ",
"                        u.g g v.w.x.* A J J J J x J J J J y.z.A.B.8.8.8.8.8.t.t.t.t.t.t.t.t.t.t.8.8.8.                          ",
"                        C.* D.J J V E.F.J J J J J G.H.I.J.8.8.8.8.8.8.8.8.8.t.t.t.t.t.t.t.t.t.t.8.8.8.K.                        ",
"                        L.M.N.J J J J J J O.P.Q.R.S.T.T.U.8.8.8.8.8.8.8.8.8.s.t.t.t.t.t.t.t.t.s.8.8.8.V.                        ",
"                        W.J J J J Y X.Y.Z.`.T.T.T.T.T.T. +8.8.8.8.8.8.8.8.8.8.8.8.8.8.8.8.8.8.8.8.8.8..+                        ",
"                        ++@+X.#+$+%+* * T.T.T.T.T.T.T.T.&+8.8.8.8.8.8.8.8.8.8.8.8.8.8.8.8.8.8.8.8.8.8.8.                        ",
"                        * * * * * * * * T.T.T.T.T.T.T.T.*+8.8.8.8.8.8.8.8.8.8.8.8.8.8.8.8.8.8.8.8.8.8.8.                        ",
"                        * * * * * * * * T.T.T.T.T.T.T.T.=+8.8.8.8.8.8.8.8.8.8.8.8.8.8.8.8.8.8.8.8.8.8.-+                        ",
"                        * * * * * * * * T.T.T.T.T.T.T.T.;+8.8.8.8.8.8.8.8.8.8.8.8.8.8.8.8.8.8.8.8.8.8.                          ",
"                        * * * * * * * * T.T.T.T.T.T.T.T.>+,+8.8.8.8.8.8.8.8.8.8.8.8.8.8.8.8.8.8.8.8.'+                          ",
"                        * * * * * * * * T.T.T.T.T.T.T.T.T.)+!+8.8.8.8.8.8.8.8.8.8.8.8.8.8.8.8.8.8..+                            ",
"                        * * * * * * * * T.T.T.T.T.T.T.T.T.T.~+{+8.8.8.8.8.8.8.8.8.8.8.8.8.8.8.8.8.                              ",
"                        * * * * * * * * T.T.T.T.T.T.T.T.T.T.T.]+^+{+8.8.8.8.8.8.8.8.8.8.8.8.{+/+                                ",
"                        * * * * * * * * T.T.T.T.T.T.T.T.T.T.T.T.T.T.(+_+:+:+:+:+:+:+:+:+_+(+<+[+                                ",
"                        * * * * * * * * T.T.T.T.T.T.T.T.T.T.T.T.T.T.T.T.T.T.T.T.T.T.T.T.}+|+[+[+                                ",
"                        * * * * * * * * T.T.T.T.T.T.T.T.T.T.T.T.T.T.T.T.T.T.T.1+2+3+4+5+[+[+[+[+                                ",
"                        * * * * * * * * T.T.T.T.T.T.T.T.T.T.T.6+[+[+[+[+[+[+[+[+[+[+[+[+[+[+[+[+                                ",
"                        * * * * * * * * T.T.T.T.T.T.T.T.T.T.T.2+[+[+[+[+[+[+[+[+[+[+[+[+[+[+[+[+                                ",
"                        * * * * * * * * T.T.T.T.T.T.T.T.T.T.T.T.7+[+[+[+[+[+[+[+[+[+[+[+[+[+[+[+                                ",
"                        * * * * * * * * T.T.T.T.T.T.T.T.T.T.T.T.8+[+[+[+[+[+[+[+[+[+[+[+[+[+[+[+                                ",
"                        * * * * * * * * T.T.T.T.T.T.T.T.T.T.T.T.9+[+[+[+[+[+[+[+[+[+[+[+[+[+[+[+                                ",
"                        * * * * * * * * T.T.T.T.T.T.T.T.T.T.T.T.0+[+[+[+[+[+[+[+[+[+[+[+[+[+[+[+                                ",
"                        * * * * * * * * T.T.T.T.T.T.T.T.T.T.T.T.a+b+[+[+[+[+[+[+[+[+[+[+[+[+[+[+                                ",
"                        c+* * * * * * * T.T.T.T.T.T.T.T.T.T.T.T.T.d+[+[+[+[+[+[+[+[+[+[+[+[+[+[+                                ",
"                          * * * * * * * T.T.T.T.T.T.T.T.T.T.T.T.T.e+[+[+[+[+[+[+[+[+[+[+[+[+[+[+                                ",
"                          * * * * * * * T.T.T.T.T.T.T.T.T.T.T.T.T.a+f+[+[+[+[+[+[+[+[+[+[+[+[+[+                                ",
"                            * * * * * * T.T.T.T.T.T.T.T.T.T.T.T.T.T.g+[+[+[+[+[+[+[+[+[+[+[+[+[+                                ",
"                                * * * * T.T.T.T.T.T.T.T.T.T.T.T.h+    i+j+k+l+[+[+[+[+[+[+[+[+[+                                ",
"                                        T.T.T.T.T.T.T.T.T.T.T.                m+[+[+[+[+[+[+[+[+                                ",
"                                        T.T.T.T.T.T.T.T.T.T.                  n+[+[+[+[+[+[+[+[+                                ",
"                                        T.T.T.T.T.T.T.T.T.T.                    [+[+[+[+[+[+[+[+                                ",
"                                        T.T.T.T.T.T.T.T.T.T.                    [+[+[+[+[+[+[+[+                                ",
"                                        T.T.T.T.T.T.T.T.T.T.                    m+[+[+[+[+[+[+7+                                ",
"                                        T.T.T.T.T.T.T.T.T.o+                    |+[+[+[+[+[+[+8+                                ",
"                                          T.T.T.T.T.T.T.T.                        7+[+[+[+[+p+                                  ",
"                                            q+T.T.T.T.o+                            r+s+s+8+                                    ",
"                                                                                                                                ",
"                                                                                                                                ",
"                                                                                                                                ",
"                                                                                                                                "};
