/* XPM */
static char * imposter_chizz_xpm[] = {
"64 64 384 2",
"  	c #F9E650",
". 	c #F9E756",
"+ 	c #FBEB71",
"@ 	c #FDED7F",
"# 	c #FDEE82",
"$ 	c #FDEE80",
"% 	c #FCEB74",
"& 	c #FAE758",
"* 	c #F9E651",
"= 	c #FDEE81",
"- 	c #FCEC79",
"; 	c #FAE860",
"> 	c #F9E652",
", 	c #FAE963",
"' 	c #FCED7D",
") 	c #FDED7E",
"! 	c #FBE968",
"~ 	c #FBE969",
"{ 	c #FCEC75",
"] 	c #F9E653",
"^ 	c #FBEA6D",
"/ 	c #FBEB73",
"( 	c #F9E654",
"_ 	c #FCEB72",
": 	c #FCEC7A",
"< 	c #FCED7A",
"[ 	c #FDEC76",
"} 	c #E7153E",
"| 	c #E8153E",
"1 	c #E7153C",
"2 	c #E7153D",
"3 	c #E6153C",
"4 	c #FBEA6A",
"5 	c #FAE85D",
"6 	c #FAE757",
"7 	c #FCED7B",
"8 	c #E7143D",
"9 	c #F9E754",
"0 	c #E7163D",
"a 	c #FAE85F",
"b 	c #FAE759",
"c 	c #FBEA6E",
"d 	c #F9E755",
"e 	c #FAE85B",
"f 	c #FAE85E",
"g 	c #FBE967",
"h 	c #FCEC76",
"i 	c #F9E758",
"j 	c #FAE968",
"k 	c #FBEA70",
"l 	c #FCEE7B",
"m 	c #FBEB70",
"n 	c #E6163D",
"o 	c #E0273A",
"p 	c #D73C37",
"q 	c #D34535",
"r 	c #D04C34",
"s 	c #D04A35",
"t 	c #D44235",
"u 	c #D93638",
"v 	c #E4283C",
"w 	c #F29D3A",
"x 	c #F29D3B",
"y 	c #E6183C",
"z 	c #D83B37",
"A 	c #C95C31",
"B 	c #C66330",
"C 	c #CA6B47",
"D 	c #D68490",
"E 	c #DE93BD",
"F 	c #E199CF",
"G 	c #E39BD0",
"H 	c #EAA5D1",
"I 	c #E9A2D1",
"J 	c #E896D2",
"K 	c #E88AD2",
"L 	c #E77EC3",
"M 	c #E75E9B",
"N 	c #E82B59",
"O 	c #DE2A39",
"P 	c #CA5B31",
"Q 	c #C66332",
"R 	c #D78594",
"S 	c #E7A5F2",
"T 	c #E8A7F8",
"U 	c #E8A4F5",
"V 	c #E867A7",
"W 	c #E71841",
"X 	c #F18E3B",
"Y 	c #D93637",
"Z 	c #C76130",
"` 	c #DB8CAB",
" .	c #EFBEEE",
"..	c #F3CBE8",
"+.	c #F2C8EA",
"@.	c #E87BBF",
"#.	c #F0863A",
"$.	c #DB3139",
"%.	c #D37C78",
"&.	c #F7DBE2",
"*.	c #FEF4D7",
"=.	c #E768A8",
"-.	c #E1243A",
";.	c #C66431",
">.	c #E39EDD",
",.	c #E7A0EE",
"'.	c #FDED7D",
").	c #CF4F34",
"!.	c #CC6F54",
"~.	c #F6DAE3",
"{.	c #FDF1D8",
"].	c #FBEA6F",
"^.	c #D0133C",
"/.	c #A00E39",
"(.	c #890C38",
"_.	c #840B37",
":.	c #850B37",
"<.	c #A02536",
"[.	c #D17971",
"}.	c #FCED7C",
"|.	c #FBEB72",
"1.	c #AB0F39",
"2.	c #6D0936",
"3.	c #6C0936",
"4.	c #A74332",
"5.	c #D17A75",
"6.	c #FAE864",
"7.	c #FAE75A",
"8.	c #B9103A",
"9.	c #6E0B36",
"0.	c #C15E30",
"a.	c #CE735E",
"b.	c #E6153D",
"c.	c #790A36",
"d.	c #791735",
"e.	c #C76434",
"f.	c #E5A3EB",
"g.	c #E8A5F6",
"h.	c #822034",
"i.	c #D78595",
"j.	c #E87ABE",
"k.	c #C5123B",
"l.	c #892734",
"m.	c #C76637",
"n.	c #E892DD",
"o.	c #E52A57",
"p.	c #C4123B",
"q.	c #8B2834",
"r.	c #C8683F",
"s.	c #DF95C5",
"t.	c #E72753",
"u.	c #D27B75",
"v.	c #DF94C3",
"w.	c #E7A4F1",
"x.	c #DF97C8",
"y.	c #D37C7D",
"z.	c #E71840",
"A.	c #FBEC75",
"B.	c #E8153C",
"C.	c #C8673C",
"D.	c #C4633E",
"E.	c #A7453B",
"F.	c #8D2B39",
"G.	c #791737",
"H.	c #700D37",
"I.	c #700D36",
"J.	c #7B1937",
"K.	c #963434",
"L.	c #C05D31",
"M.	c #C66130",
"N.	c #E7143C",
"O.	c #C05E30",
"P.	c #973433",
"Q.	c #720E36",
"R.	c #72133E",
"S.	c #985272",
"T.	c #AE7790",
"U.	c #A66985",
"V.	c #771335",
"W.	c #BD5831",
"X.	c #E9A7F8",
"Y.	c #A94632",
"Z.	c #731036",
"`.	c #6F0E3A",
" +	c #741741",
".+	c #F4EDF0",
"++	c #FFFFFF",
"@+	c #D0B1BF",
"#+	c #863459",
"$+	c #8C2934",
"%+	c #C0123A",
"&+	c #C56230",
"*+	c #912E34",
"=+	c #6E0D39",
"-+	c #BA8CA1",
";+	c #DCC4CF",
">+	c #B17D95",
",+	c #B48299",
"'+	c #E5D4DC",
")+	c #A76C87",
"!+	c #741035",
"~+	c #E8A8F8",
"{+	c #C46130",
"]+	c #882534",
"^+	c #964F70",
"/+	c #F7F1F4",
"(+	c #9B5776",
"_+	c #73153F",
":+	c #F3EBEE",
"<+	c #853359",
"[+	c #6E0936",
"}+	c #FCED79",
"|+	c #E8A7F9",
"1+	c #8F2C34",
"2+	c #781D47",
"3+	c #C198AB",
"4+	c #9B5877",
"5+	c #781C46",
"6+	c #A1627F",
"7+	c #CAA6B6",
"8+	c #843257",
"9+	c #6B0936",
"0+	c #F9E757",
"a+	c #FAE961",
"b+	c #FCEC72",
"c+	c #A64332",
"d+	c #7B224A",
"e+	c #8B2734",
"f+	c #832035",
"g+	c #852235",
"h+	c #852335",
"i+	c #872535",
"j+	c #892836",
"k+	c #8D2D37",
"l+	c #8E2E37",
"m+	c #FBEA68",
"n+	c #FDED80",
"o+	c #953233",
"p+	c #751036",
"q+	c #CA5139",
"r+	c #ED7D3B",
"s+	c #EE713B",
"t+	c #B75431",
"u+	c #7E0B37",
"v+	c #B2103A",
"w+	c #CA123C",
"x+	c #CA123B",
"y+	c #B5103A",
"z+	c #930D38",
"A+	c #740D36",
"B+	c #962537",
"C+	c #EC863A",
"D+	c #F1953A",
"E+	c #ED6A3C",
"F+	c #FBEA69",
"G+	c #FCEC78",
"H+	c #862334",
"I+	c #8F0C38",
"J+	c #E3143D",
"K+	c #E5273C",
"L+	c #D4453A",
"M+	c #DB623A",
"N+	c #F1993A",
"O+	c #F19A3A",
"P+	c #EF7B3A",
"Q+	c #EB493C",
"R+	c #F0853B",
"S+	c #EF683A",
"T+	c #F28F3A",
"U+	c #FAE861",
"V+	c #FBE96B",
"W+	c #B45232",
"X+	c #7C0B37",
"Y+	c #E8213D",
"Z+	c #E8233D",
"`+	c #D2143C",
" @	c #E81F3D",
".@	c #ED653B",
"+@	c #F0783C",
"@@	c #F07A3B",
"#@	c #F29B3A",
"$@	c #EE663C",
"%@	c #F9E85A",
"&@	c #A90F39",
"*@	c #ED5471",
"=@	c #FACDD5",
"-@	c #EA3457",
";@	c #EA3053",
">@	c #EB3C5D",
",@	c #F390A3",
"'@	c #AB2349",
")@	c #6F0A36",
"!@	c #E71E3E",
"~@	c #EB433C",
"{@	c #ED5A3C",
"]@	c #ED623D",
"^@	c #FBEB6F",
"/@	c #BF5D30",
"(@	c #741135",
"_@	c #E08CA0",
":@	c #D997AA",
"<@	c #B8103B",
"[@	c #DE143C",
"}@	c #F8BDC8",
"|@	c #F1748C",
"1@	c #D92B50",
"2@	c #FFFEFE",
"3@	c #EADCE3",
"4@	c #751237",
"5@	c #FDEE7F",
"6@	c #AA4832",
"7@	c #6D0A36",
"8@	c #751742",
"9@	c #9C5071",
"0@	c #E390A4",
"a@	c #6F0A37",
"b@	c #E4D2DA",
"c@	c #7B1A37",
"d@	c #9B3833",
"e@	c #71123D",
"f@	c #E7D7DF",
"g@	c #CDACBB",
"h@	c #9A5675",
"i@	c #6E0C38",
"j@	c #953537",
"k@	c #FBE863",
"l@	c #FCEB73",
"m@	c #FDEE83",
"n@	c #932F34",
"o@	c #A0607D",
"p@	c #E0CCD5",
"q@	c #B75C39",
"r@	c #FBE966",
"s@	c #FDEC79",
"t@	c #6C0A36",
"u@	c #C86531",
"v@	c #993633",
"w@	c #8B3D61",
"x@	c #AA718B",
"y@	c #751236",
"z@	c #EB933A",
"A@	c #FAE755",
"B@	c #FCEB75",
"C@	c #FBED7A",
"D@	c #A94531",
"E@	c #DE8436",
"F@	c #EA9238",
"G@	c #DD8235",
"H@	c #BA5933",
"I@	c #791635",
"J@	c #CA7138",
"K@	c #F19B3A",
"L@	c #D67933",
"M@	c #EC953A",
"N@	c #B65937",
"O@	c #872635",
"P@	c #761336",
"Q@	c #761436",
"R@	c #923237",
"S@	c #D57D39",
"T@	c #CA6930",
"U@	c #F29C3A",
"V@	c #E89138",
"W@	c #FBEA6C",
"X@	c #C66230",
"Y@	c #D77C33",
"Z@	c #E28737",
"`@	c #E48C38",
" #	c #F09A3A",
".#	c #FAE85C",
"+#	c #FBEA67",
"@#	c #EE9639",
"##	c #FCEC74",
"$#	c #C7632F",
"%#	c #E08536",
"&#	c #F09A39",
"*#	c #F19B39",
"=#	c #EA9338",
"-#	c #EA9438",
";#	c #C56330",
">#	c #F29E3A",
",#	c #C76330",
"'#	c #EC9639",
")#	c #EF9839",
"                      . + @ # # # # # # # # # # # # # # # # # # # # # $ % & *     * & % $ # # # # # # # # # # # # # # # # = - ; ",
"                    > , ' = # # # # # # # # # # # # # # # # # # # # # # ) ! >     > ~ ) # # # # # # # # # # # # # # # # # # @ { ",
"                    ] ^ = # # # # # # # # # # # # # # # # # # # # # # # = / (     ( / = # # # # # # # # # # # # # # # # # # # $ ",
"                    ( _ = # # # # # # # # # # # # # # # # # # # # # # # # : &     & < # # # # # # # # # # # # # # # # # # # # # ",
"                    ( [ = # # # # # # # # # # # # # # # } | } 1 2 } | 3 # $ 4 5 5 4 $ # # # # # # # # # # # # # # # # # # # # # ",
"                    6 7 # # # # # # # # # # # # # 2 2 2 2 2 2 2 2 2 2 2 2 2 } % % @ # # # # # # # # # # # # # # # # # # # # # # ",
"                  * ; @ # # # # # # # # # # # 2 2 2 2 2 2 2 2 2 2 2 2 2 2 2 2 2 8 # # # # # # # # # # # # # # # # # # # # # # # ",
"                  9 + = # # # # # # # # # 0 2 2 2 2 2 2 2 2 2 2 2 2 2 2 2 2 2 2 2 2 | # # # # # # # # # # # # # # # # # # # # # ",
"                * a ' # # # # # # # # # | 2 2 2 2 2 2 2 2 2 2 2 2 2 2 2 2 2 2 2 2 2 2 2 # # # # # # # # # # # # # # # # # # # # ",
"                6 % = # # # # # # # # 2 2 2 2 2 2 2 2 2 2 2 2 2 2 2 2 2 2 2 2 2 2 2 2 2 2 # # # # # # # # # # # # # # # # # # # ",
"              b c @ # # # # # # # # 2 2 2 2 2 2 2 2 2 2 2 2 2 2 2 2 2 2 2 2 2 2 2 2 2 2 2 2 # # # # # # # # # # # # # # # # # # ",
"          ( a c @ # # # # # # # # 2 2 2 2 2 2 2 2 2 2 2 2 2 2 2 2 2 2 2 2 2 2 2 2 2 2 2 2 2 2 # # # # # # # # # # # # # # # # # ",
"  d b e f g h = # # # # # # # # 0 2 2 2 2 2 2 2 2 2 2 2 2 2 2 2 2 2 2 2 2 2 2 2 2 2 2 2 2 2 2 2 # # # # # # # # # # # # # # # # ",
"i j k [ l $ = # # # # # # # # # 2 2 2 2 2 2 2 2 2 2 2 2 2 2 2 2 2 2 2 2 2 2 2 2 2 2 2 2 2 2 2 2 # # # # # # # # # # # # # # # # ",
"m ) $ = = # # # # # # # # # # | 2 2 2 2 2 2 2 2 2 2 2 2 2 2 2 2 2 2 2 2 2 2 2 2 2 2 2 2 2 2 2 2 8 # # # # # # # # # # # # # # # ",
") # # # # # # # # # # # # # # 2 2 2 2 2 2 2 2 2 2 2 2 2 2 2 2 n o p q r s t u v 2 2 2 2 2 2 2 2 2 # # # # # # # # # # # # # # # ",
"# # # # # # # # # # w x # # 2 2 2 2 2 2 2 2 2 2 2 2 2 2 2 y z A B B C D E F G H I J K K K L M N 2 2 # # # # # # # # # # # # # # ",
"# # # # # # # # # # w w # # 2 2 2 2 2 2 2 2 2 2 2 2 2 2 O P B B Q R S T T T T T T T T T T T T U V W # # # # # # # # # # # # # # ",
"# # # # # # # # w w w w w X 2 2 2 2 2 2 2 2 2 2 2 2 2 Y Z B B B ` T T T T T T  ...............+.T @.# # # # # # # # # # # # # # ",
"# # # # # # # # x w w w w #.2 2 2 2 2 2 2 2 2 2 2 2 $.B B B B %.T T T T T T T &.*.*.*.*.*.*.*.*.T T =.# # # # # # # # # # # # # ",
"# # # # # # # # # # w w # | 2 2 2 2 2 2 2 2 2 2 2 -.Z B B B ;.>.T T T T T T T &.*.*.*.*.*.*.*.*.T T ,.# # # # # # # # # # # # '.",
"# # # # # # # # # # x w # 2 2 2 2 2 2 2 2 2 2 2 2 ).B B B B !.T T T T T T T T ~.*.*.*.*.*.*.*.{.T T T # # # # # # # # # # = @ ].",
"# # # # # # # # # # # # # 0 2 2 2 2 2 ^./.(._.:.<.B B B B B [.T T T T T T T T T T T T T T T T T T T T # # # # # # # # = }.|.j i ",
"# # # # # # # # # # # # # 2 2 2 2 2 1.2.3.3.3.3.4.B B B B B 5.T T T T T T T T T T T T T T T T T T T T # # # # # # # # }.6.7.d   ",
"# # # # # # # # # # # # # 2 2 2 2 8.3.3.3.3.3.9.0.B B B B B a.T T T T T T T T T T T T T T T T T T T T # # # # # # # = |.]       ",
"# # # # # # # # # # # # # 2 2 2 b.c.3.3.3.3.3.d.B B B B B B e.f.T T T T T T T T T T T T T T T T T T g.# # # # # # # $ ^ ]       ",
"# # # # # # # # # # # # # 0 2 2 ^.3.3.3.3.3.3.h.B B B B B B B i.T T T T T T T T T T T T T T T T T T j.# # # # # # # = % i       ",
"# # # # # # # # # # # # # # 2 2 k.3.3.3.3.3.3.l.B B B B B B B m.F T T T T T T T T T T T T T T T T n.o.# # # # # # # # @ 4 5 & > ",
"# # # # # # # # # # # # # # 2 2 p.3.3.3.3.3.3.q.B B B B B B B B r.s.T T T T T T T T T T T T T T K t.# # # # # # # # # # $ ' % f ",
"# # # # # # # # # # # # # # 2 2 p.3.3.3.3.3.3.q.B B B B B B B B B Q u.v.w.T T T T T T T T S x.y.z.8 # # # # # # # # # # # # $ A.",
"# # # # # # # # # # # # # # B.2 p.3.3.3.3.3.3.q.B B B B B B B B B B B B B C.D.E.F.G.H.I.J.K.L.M.2 N.# # # # # # # # # # # # # $ ",
"# # # # # # # # # # # # # # # 2 p.3.3.3.3.3.3.q.B B B B B B B B B B B B O.P.Q.R.S.T.U.3.3.3.V.W.2 # # # # # X.T # # # # # # # # ",
"# # # # # # # # # # # # # # # b.p.3.3.3.3.3.3.q.B B B B B B B B B B B Y.Z.`.3. +.+++@+3.3.#+3.$+0 # # # # # T T # # # # # # # # ",
"# # # # # # # # # # # # # # # # %+3.3.3.3.3.3.q.B B B B B B B B B &+*+=+-+;+3.3.>+++,+3.3.'+)+!+# # # # X.X.T T ~+T # # # # # # ",
"# # # # # # # # # # # # # # # # # 3.3.3.3.3.3.q.B B B B B B B B {+]+3.^+/+++(+3._+:+S.3.<+++'+[+}+' $ # |+T T T T T # # # # # # ",
"# # # # # # # # # # # # # # # # # 3.3.3.3.3.3.q.B B B B B B B B 1+3.3.3.2+3+'+3.3.4+5+3.6+7+8+9+0+a+b+@ # # T T # # # # # # # # ",
"# # # # # # # # # # # # # # # # # 3.3.3.3.3.3.q.B B B B B B B c+3.3.3.3.3.3.d+3.3.3.3.3.3.3.3.    ] & ! '.# |+T # # # # # # # # ",
"# # # # # # # # # # # # # # # # # 3.3.3.3.3.3.q.B B B B B B B e+f+f+g+g+g+g+g+g+g+h+i+j+k+l+3.        . m+n+# # # # # # # # # # ",
"= # # # # # # # # # # # # # # # # 3.3.3.3.3.3.q.B B B B B B B o+3.3.3.3.3.3.3.3.3.3.3.3.3.p+q+r+s+      6 _ = # # # # # # # # # ",
": # # # # # # # # # # # # # # # = 3.3.3.3.3.3.q.B B B B B B B t+3.3.3.u+v+w+x+y+z+A+3.3.B+C+w w w D+    * a ' # E+# # # # # # # ",
"F+- '.= # # # # # # # # # # # = G+3.3.3.3.3.3.q.B B B B B B B B H+3.I+J+2 2 2 2 2 K+L+M+N+w O+P+Q+R+N+S+  d { T+# # # # # # # # ",
"] U+V+h $ # # # # # # # # # # $ , 3.3.3.3.3.3.q.B B B B B B B B W+2.X+J+2 2 2 2 2 2 2 0 Y+Z+0 `+   @.@N++@@@#@$@# # # # # # # # ",
"  > ] 7.- = # # # # # # # # # @ %@3.3.3.3.3.3.q.B B B B B B B B B $+3.&@2 *@=@-@2 ;@;@2 >@,@'@)@    b.!@~@{@]@$ # # # # # # # # ",
"      ( ^@= # # # # # # # # # @ f 3.3.3.3.3.3.q.B B B B B B B B B /@(@[+_@++:@<@[@}@|@2 1@2@3@4@          * 5 5@# # # # # # # # ",
"      ] ].= # # # # # # # # # = / 3.3.3.3.3.3.q.B B B B B B B B B B 6@7@d+'+8@3.9@++0@/.a@b@T.c@          * f @ # # # # # # # # ",
"      5 - = # # # # # # # # # # 5@3.3.3.3.3.3.q.B B B B B B B B B B B d@3.e@3.`.f@++g@3.3.h@i@j@          * U+5@# # # # # # # # ",
"d k@4 l@$ # # # # # # # # # # # # m@3.3.3.3.3.q.B B B B B B B B B B B B n@3.3.o@++++p@3.3.3.3.q@          > F+$ # # # # # # # # ",
"r@s@$ # # # # # # # # # # # # # # # # t@3.3.3.q.B B B B B B B B B B B u@B v@2.3.w@x@U.3.3.3.y@z@          A@B@= # # # # # # # # ",
"C@= # # # # # # # # # # # # # # # # # # # # # D@B B B B B B B B B B B E@F@G@H@I@3.3.3.3.3.9.J@K@        * a ) # # # # # # # # # ",
"= # # # # # # # # # # # # # # # # # # # # # # # B B B B B B B B B B B L@w w w M@N@O@P@Q@R@S@w K@        . b+= # # # # # # # # # ",
"# # # # # # # # # # # # # # # # # # # # # # # # B B B B B B B B B B B T@U@w w w w w w w w w w K@      9 4 @ # # # # # # # # # # ",
"# # # # # # # # # # # # # # # # # # # # # # # # B B B B B B B B B B B B V@w w w w w w w w w w K@    6 W@}.# # # # # # # # # # # ",
"# # # # # # # # # # # # # # # # # # # # # # # # B B B B B B B B B B X@# Y@Z@`@ #w w w w w w w K@.#+#l@'.# # # # # # # # # # # # ",
"# # # # # # # # # # # # # # # # # # # # # # # # B B B B B B B B B # # # # # # # @#w w w w w w K@##7 # # # # # # # # # # # # # # ",
"# # # # # # # # # # # # # # # # # # # # # # # # B B B B B B B B $## # # # # # # %#w w w w w w K@# # # # # # # # # # # # # # # # ",
"# # # # # # # # # # # # # # # # # # # # # # # # B B B B B B B B # # # # # # # # # U@w w w w w K@# # # # # # # # # # # # # # # # ",
"# # # # # # # # # # # # # # # # # # # # # # # # B B B B B B B B # # # # # # # # # &#w w w w w *## # # # # # # # # # # # # # # # ",
"# # # # # # # # # # # # # # # # # # # # # # # # B B B B B B B B # # # # # # # # # =#w w w w w -## # # # # # # # # # # # # # # # ",
"# # # # # # # # # # # # # # # # # # # # # # # # ;#B B B B B B ;## # # # # # # # # # >#w w w >## # # # # # # # # # # # # # # # # ",
"# # # # # # # # # # # # # # # # # # # # # # # # # # ,#B B ,## # # # # # # # # # # # # '#)#'## # # # # # # # # # # # # # # # # # ",
"# # # # # # # # # # # # # # # # # # # # # # # # # # # # # # # # # # # # # # # # # # # # # # # # # # # # # # # # # # # # # # # # ",
"$ # # # # # # # # # # # # # # # # # # # # # # # # # # # # # # # # # # # # # # # # # # # # # # # # # # # # # # # # # # # # # # $ ",
"h @ # # # # # # # # # # # # # # # # # # # # # # # # # # # # # # # # # # # # # # # # # # # # # # # # # # # # # # # # # # # # @ { ",
"; - = # # # # # # # # # # # # # # # # # # # # # # # # # # # # # # # # # # # # # # # # # # # # # # # # # # # # # # # # # # = - ; "};
