/* XPM */
static char * killer (1)_xpm[] = {
"64 64 308 2",
"  	c None",
". 	c #E7153E",
"+ 	c #E8153E",
"@ 	c #E7153C",
"# 	c #E7153D",
"$ 	c #E6153C",
"% 	c #E7143D",
"& 	c #E7163D",
"* 	c #E6163D",
"= 	c #E0273A",
"- 	c #D73C37",
"; 	c #D34535",
"> 	c #D04C34",
", 	c #D04A35",
"' 	c #D44235",
") 	c #D93638",
"! 	c #E4283C",
"~ 	c #F29D3A",
"{ 	c #F29D3B",
"] 	c #E6183C",
"^ 	c #D83B37",
"/ 	c #C95C31",
"( 	c #C66330",
"_ 	c #CA6B47",
": 	c #D68490",
"< 	c #DE93BD",
"[ 	c #E199CF",
"} 	c #E39BD0",
"| 	c #EAA5D1",
"1 	c #E9A2D1",
"2 	c #E896D2",
"3 	c #E88AD2",
"4 	c #E77EC3",
"5 	c #E75E9B",
"6 	c #E82B59",
"7 	c #DE2A39",
"8 	c #CA5B31",
"9 	c #C66332",
"0 	c #D78594",
"a 	c #E7A5F2",
"b 	c #E8A7F8",
"c 	c #E8A4F5",
"d 	c #E867A7",
"e 	c #E71841",
"f 	c #F18E3B",
"g 	c #D93637",
"h 	c #C76130",
"i 	c #DB8CAB",
"j 	c #EFBEEE",
"k 	c #F3CBE8",
"l 	c #F2C8EA",
"m 	c #E87BBF",
"n 	c #F0863A",
"o 	c #DB3139",
"p 	c #D37C78",
"q 	c #F7DBE2",
"r 	c #FEF4D7",
"s 	c #E768A8",
"t 	c #E1243A",
"u 	c #C66431",
"v 	c #E39EDD",
"w 	c #E7A0EE",
"x 	c #CF4F34",
"y 	c #CC6F54",
"z 	c #F6DAE3",
"A 	c #FDF1D8",
"B 	c #D0133C",
"C 	c #A00E39",
"D 	c #890C38",
"E 	c #840B37",
"F 	c #850B37",
"G 	c #A02536",
"H 	c #D17971",
"I 	c #AB0F39",
"J 	c #6D0936",
"K 	c #6C0936",
"L 	c #A74332",
"M 	c #D17A75",
"N 	c #B9103A",
"O 	c #6E0B36",
"P 	c #C15E30",
"Q 	c #CE735E",
"R 	c #E6153D",
"S 	c #790A36",
"T 	c #791735",
"U 	c #C76434",
"V 	c #E5A3EB",
"W 	c #E8A5F6",
"X 	c #822034",
"Y 	c #D78595",
"Z 	c #E87ABE",
"` 	c #C5123B",
" .	c #892734",
"..	c #C76637",
"+.	c #E892DD",
"@.	c #E52A57",
"#.	c #C4123B",
"$.	c #8B2834",
"%.	c #C8683F",
"&.	c #DF95C5",
"*.	c #E72753",
"=.	c #D27B75",
"-.	c #DF94C3",
";.	c #E7A4F1",
">.	c #DF97C8",
",.	c #D37C7D",
"'.	c #E71840",
").	c #E8153C",
"!.	c #C8673C",
"~.	c #C4633E",
"{.	c #A7453B",
"].	c #8D2B39",
"^.	c #791737",
"/.	c #700D37",
"(.	c #700D36",
"_.	c #7B1937",
":.	c #963434",
"<.	c #C05D31",
"[.	c #C66130",
"}.	c #E7143C",
"|.	c #C05E30",
"1.	c #973433",
"2.	c #720E36",
"3.	c #72133E",
"4.	c #985272",
"5.	c #AE7790",
"6.	c #A66985",
"7.	c #771335",
"8.	c #BD5831",
"9.	c #E9A7F8",
"0.	c #A94632",
"a.	c #731036",
"b.	c #6F0E3A",
"c.	c #741741",
"d.	c #F4EDF0",
"e.	c #FFFFFF",
"f.	c #D0B1BF",
"g.	c #863459",
"h.	c #8C2934",
"i.	c #C0123A",
"j.	c #C56230",
"k.	c #912E34",
"l.	c #6E0D39",
"m.	c #BA8CA1",
"n.	c #DCC4CF",
"o.	c #B17D95",
"p.	c #B48299",
"q.	c #E5D4DC",
"r.	c #A76C87",
"s.	c #741035",
"t.	c #E8A8F8",
"u.	c #C46130",
"v.	c #882534",
"w.	c #964F70",
"x.	c #F7F1F4",
"y.	c #9B5776",
"z.	c #73153F",
"A.	c #F3EBEE",
"B.	c #853359",
"C.	c #6E0936",
"D.	c #E8A7F9",
"E.	c #8F2C34",
"F.	c #781D47",
"G.	c #C198AB",
"H.	c #9B5877",
"I.	c #781C46",
"J.	c #A1627F",
"K.	c #CAA6B6",
"L.	c #843257",
"M.	c #6B0936",
"N.	c #A64332",
"O.	c #7B224A",
"P.	c #8B2734",
"Q.	c #832035",
"R.	c #852235",
"S.	c #852335",
"T.	c #872535",
"U.	c #892836",
"V.	c #8D2D37",
"W.	c #8E2E37",
"X.	c #953233",
"Y.	c #751036",
"Z.	c #CA5139",
"`.	c #ED7D3B",
" +	c #EE713B",
".+	c #B75431",
"++	c #7E0B37",
"@+	c #B2103A",
"#+	c #CA123C",
"$+	c #CA123B",
"%+	c #B5103A",
"&+	c #930D38",
"*+	c #740D36",
"=+	c #962537",
"-+	c #EC863A",
";+	c #F1953A",
">+	c #ED6A3C",
",+	c #862334",
"'+	c #8F0C38",
")+	c #E3143D",
"!+	c #E5273C",
"~+	c #D4453A",
"{+	c #DB623A",
"]+	c #F1993A",
"^+	c #F19A3A",
"/+	c #EF7B3A",
"(+	c #EB493C",
"_+	c #F0853B",
":+	c #EF683A",
"<+	c #F28F3A",
"[+	c #B45232",
"}+	c #7C0B37",
"|+	c #E8213D",
"1+	c #E8233D",
"2+	c #D2143C",
"3+	c #E81F3D",
"4+	c #ED653B",
"5+	c #F0783C",
"6+	c #F07A3B",
"7+	c #F29B3A",
"8+	c #EE663C",
"9+	c #A90F39",
"0+	c #ED5471",
"a+	c #FACDD5",
"b+	c #EA3457",
"c+	c #EA3053",
"d+	c #EB3C5D",
"e+	c #F390A3",
"f+	c #AB2349",
"g+	c #6F0A36",
"h+	c #E71E3E",
"i+	c #EB433C",
"j+	c #ED5A3C",
"k+	c #ED623D",
"l+	c #BF5D30",
"m+	c #741135",
"n+	c #E08CA0",
"o+	c #D997AA",
"p+	c #B8103B",
"q+	c #DE143C",
"r+	c #F8BDC8",
"s+	c #F1748C",
"t+	c #D92B50",
"u+	c #FFFEFE",
"v+	c #EADCE3",
"w+	c #751237",
"x+	c #AA4832",
"y+	c #6D0A36",
"z+	c #751742",
"A+	c #9C5071",
"B+	c #E390A4",
"C+	c #6F0A37",
"D+	c #E4D2DA",
"E+	c #7B1A37",
"F+	c #9B3833",
"G+	c #71123D",
"H+	c #E7D7DF",
"I+	c #CDACBB",
"J+	c #9A5675",
"K+	c #6E0C38",
"L+	c #953537",
"M+	c #932F34",
"N+	c #A0607D",
"O+	c #E0CCD5",
"P+	c #B75C39",
"Q+	c #6C0A36",
"R+	c #C86531",
"S+	c #993633",
"T+	c #8B3D61",
"U+	c #AA718B",
"V+	c #751236",
"W+	c #EB933A",
"X+	c #A94531",
"Y+	c #DE8436",
"Z+	c #EA9238",
"`+	c #DD8235",
" @	c #BA5933",
".@	c #791635",
"+@	c #CA7138",
"@@	c #F19B3A",
"#@	c #D67933",
"$@	c #EC953A",
"%@	c #B65937",
"&@	c #872635",
"*@	c #761336",
"=@	c #761436",
"-@	c #923237",
";@	c #D57D39",
">@	c #CA6930",
",@	c #F29C3A",
"'@	c #E89138",
")@	c #C66230",
"!@	c #D77C33",
"~@	c #E28737",
"{@	c #E48C38",
"]@	c #F09A3A",
"^@	c #EE9639",
"/@	c #C7632F",
"(@	c #E08536",
"_@	c #F09A39",
":@	c #F19B39",
"<@	c #EA9338",
"[@	c #EA9438",
"}@	c #C56330",
"|@	c #F29E3A",
"1@	c #C76330",
"2@	c #EC9639",
"3@	c #EF9839",
"                                                                                                                                ",
"                                                                                                                                ",
"                                                                                                                                ",
"                                                                                                                                ",
"                                                        . + . @ # . + $                                                         ",
"                                                  # # # # # # # # # # # # # .                                                   ",
"                                              # # # # # # # # # # # # # # # # # %                                               ",
"                                          & # # # # # # # # # # # # # # # # # # # # +                                           ",
"                                        + # # # # # # # # # # # # # # # # # # # # # # #                                         ",
"                                      # # # # # # # # # # # # # # # # # # # # # # # # # #                                       ",
"                                    # # # # # # # # # # # # # # # # # # # # # # # # # # # #                                     ",
"                                  # # # # # # # # # # # # # # # # # # # # # # # # # # # # # #                                   ",
"                                & # # # # # # # # # # # # # # # # # # # # # # # # # # # # # # #                                 ",
"                                # # # # # # # # # # # # # # # # # # # # # # # # # # # # # # # #                                 ",
"                              + # # # # # # # # # # # # # # # # # # # # # # # # # # # # # # # # %                               ",
"                              # # # # # # # # # # # # # # # # * = - ; > , ' ) ! # # # # # # # # #                               ",
"                    ~ {     # # # # # # # # # # # # # # # ] ^ / ( ( _ : < [ } | 1 2 3 3 3 4 5 6 # #                             ",
"                    ~ ~     # # # # # # # # # # # # # # 7 8 ( ( 9 0 a b b b b b b b b b b b b c d e                             ",
"                ~ ~ ~ ~ ~ f # # # # # # # # # # # # # g h ( ( ( i b b b b b b j k k k k k k k l b m                             ",
"                { ~ ~ ~ ~ n # # # # # # # # # # # # o ( ( ( ( p b b b b b b b q r r r r r r r r b b s                           ",
"                    ~ ~   + # # # # # # # # # # # t h ( ( ( u v b b b b b b b q r r r r r r r r b b w                           ",
"                    { ~   # # # # # # # # # # # # x ( ( ( ( y b b b b b b b b z r r r r r r r A b b b                           ",
"                          & # # # # # B C D E F G ( ( ( ( ( H b b b b b b b b b b b b b b b b b b b b                           ",
"                          # # # # # I J K K K K L ( ( ( ( ( M b b b b b b b b b b b b b b b b b b b b                           ",
"                          # # # # N K K K K K O P ( ( ( ( ( Q b b b b b b b b b b b b b b b b b b b b                           ",
"                          # # # R S K K K K K T ( ( ( ( ( ( U V b b b b b b b b b b b b b b b b b b W                           ",
"                          & # # B K K K K K K X ( ( ( ( ( ( ( Y b b b b b b b b b b b b b b b b b b Z                           ",
"                            # # ` K K K K K K  .( ( ( ( ( ( ( ..[ b b b b b b b b b b b b b b b b +.@.                          ",
"                            # # #.K K K K K K $.( ( ( ( ( ( ( ( %.&.b b b b b b b b b b b b b b 3 *.                            ",
"                            # # #.K K K K K K $.( ( ( ( ( ( ( ( ( 9 =.-.;.b b b b b b b b a >.,.'.%                             ",
"                            ).# #.K K K K K K $.( ( ( ( ( ( ( ( ( ( ( ( ( !.~.{.].^./.(._.:.<.[.# }.                            ",
"                              # #.K K K K K K $.( ( ( ( ( ( ( ( ( ( ( ( |.1.2.3.4.5.6.K K K 7.8.#           9.b                 ",
"                              R #.K K K K K K $.( ( ( ( ( ( ( ( ( ( ( 0.a.b.K c.d.e.f.K K g.K h.&           b b                 ",
"                                i.K K K K K K $.( ( ( ( ( ( ( ( ( j.k.l.m.n.K K o.e.p.K K q.r.s.        9.9.b b t.b             ",
"                                  K K K K K K $.( ( ( ( ( ( ( ( u.v.K w.x.e.y.K z.A.4.K B.e.q.C.        D.b b b b b             ",
"                                  K K K K K K $.( ( ( ( ( ( ( ( E.K K K F.G.q.K K H.I.K J.K.L.M.            b b                 ",
"                                  K K K K K K $.( ( ( ( ( ( ( N.K K K K K K O.K K K K K K K K               D.b                 ",
"                                  K K K K K K $.( ( ( ( ( ( ( P.Q.Q.R.R.R.R.R.R.R.S.T.U.V.W.K                                   ",
"                                  K K K K K K $.( ( ( ( ( ( ( X.K K K K K K K K K K K K K Y.Z.`. +                              ",
"                                  K K K K K K $.( ( ( ( ( ( ( .+K K K ++@+#+$+%+&+*+K K =+-+~ ~ ~ ;+            >+              ",
"                                  K K K K K K $.( ( ( ( ( ( ( ( ,+K '+)+# # # # # !+~+{+]+~ ^+/+(+_+]+:+      <+                ",
"                                  K K K K K K $.( ( ( ( ( ( ( ( [+J }+)+# # # # # # # & |+1+& 2+  3+4+]+5+6+7+8+                ",
"                                  K K K K K K $.( ( ( ( ( ( ( ( ( h.K 9+# 0+a+b+# c+c+# d+e+f+g+    R h+i+j+k+                  ",
"                                  K K K K K K $.( ( ( ( ( ( ( ( ( l+m+C.n+e.o+p+q+r+s+# t+u+v+w+                                ",
"                                  K K K K K K $.( ( ( ( ( ( ( ( ( ( x+y+O.q.z+K A+e.B+C C+D+5.E+                                ",
"                                  K K K K K K $.( ( ( ( ( ( ( ( ( ( ( F+K G+K b.H+e.I+K K J+K+L+                                ",
"                                    K K K K K $.( ( ( ( ( ( ( ( ( ( ( ( M+K K N+e.e.O+K K K K P+                                ",
"                                      Q+K K K $.( ( ( ( ( ( ( ( ( ( ( R+( S+J K T+U+6.K K K V+W+                                ",
"                                              X+( ( ( ( ( ( ( ( ( ( ( Y+Z+`+ @.@K K K K K O +@@@                                ",
"                                                ( ( ( ( ( ( ( ( ( ( ( #@~ ~ ~ $@%@&@*@=@-@;@~ @@                                ",
"                                                ( ( ( ( ( ( ( ( ( ( ( >@,@~ ~ ~ ~ ~ ~ ~ ~ ~ ~ @@                                ",
"                                                ( ( ( ( ( ( ( ( ( ( ( ( '@~ ~ ~ ~ ~ ~ ~ ~ ~ ~ @@                                ",
"                                                ( ( ( ( ( ( ( ( ( ( )@  !@~@{@]@~ ~ ~ ~ ~ ~ ~ @@                                ",
"                                                ( ( ( ( ( ( ( ( (               ^@~ ~ ~ ~ ~ ~ @@                                ",
"                                                ( ( ( ( ( ( ( ( /@              (@~ ~ ~ ~ ~ ~ @@                                ",
"                                                ( ( ( ( ( ( ( (                   ,@~ ~ ~ ~ ~ @@                                ",
"                                                ( ( ( ( ( ( ( (                   _@~ ~ ~ ~ ~ :@                                ",
"                                                ( ( ( ( ( ( ( (                   <@~ ~ ~ ~ ~ [@                                ",
"                                                }@( ( ( ( ( ( }@                    |@~ ~ ~ |@                                  ",
"                                                    1@( ( 1@                          2@3@2@                                    ",
"                                                                                                                                ",
"                                                                                                                                ",
"                                                                                                                                ",
"                                                                                                                                "};
