/* XPM */
static char * vent_closed_xpm[] = {
"64 64 196 2",
"  	c None",
". 	c #000000",
"+ 	c #000000",
"@ 	c #000000",
"# 	c #000000",
"$ 	c #000000",
"% 	c #000000",
"& 	c #000000",
"* 	c #000000",
"= 	c #000000",
"- 	c #000000",
"; 	c #000000",
"> 	c #000000",
", 	c #000000",
"' 	c #000000",
") 	c #000000",
"! 	c #000000",
"~ 	c #000000",
"{ 	c #B2A4AC",
"] 	c #F5F558",
"^ 	c #656C7F",
"/ 	c #8E1117",
"( 	c #94C9DB",
"_ 	c #C28722",
": 	c #4A646D",
"< 	c #FF8486",
"[ 	c #FDFCFE",
"} 	c #787A8A",
"| 	c #8C8896",
"1 	c #A05B62",
"2 	c #9F96A1",
"3 	c #A97F87",
"4 	c #97363C",
"5 	c #AA2E33",
"6 	c #C74B4F",
"7 	c #E3676A",
"8 	c #333640",
"9 	c #191B20",
"0 	c #4C515F",
"a 	c #060707",
"b 	c #6A7082",
"c 	c #ADA1A9",
"d 	c #3D3D16",
"e 	c #131417",
"f 	c #5F6577",
"g 	c #737787",
"h 	c #B8B842",
"i 	c #7B7B2C",
"j 	c #7D7E8D",
"k 	c #6F7385",
"l 	c #0D0E10",
"m 	c #A89DA6",
"n 	c #908C98",
"o 	c #525867",
"p 	c #993F46",
"q 	c #878593",
"r 	c #9A939E",
"s 	c #585F6F",
"t 	c #1F2328",
"u 	c #A49AA4",
"v 	c #3F444F",
"w 	c #958F9B",
"x 	c #828190",
"y 	c #93232A",
"z 	c #B09BA3",
"A 	c #454A57",
"B 	c #952D33",
"C 	c #AE9299",
"D 	c #2C2F38",
"E 	c #901A20",
"F 	c #262930",
"G 	c #95181E",
"H 	c #A56D74",
"I 	c #D5595C",
"J 	c #A7767D",
"K 	c #B83C41",
"L 	c #AB8890",
"M 	c #CE5255",
"N 	c #614411",
"O 	c #9E5158",
"P 	c #A3272C",
"Q 	c #A2646B",
"R 	c #9C484F",
"S 	c #9C1F25",
"T 	c #BF4348",
"U 	c #DC6063",
"V 	c #F87D7F",
"W 	c #92651A",
"X 	c #F17678",
"Y 	c #393D47",
"Z 	c #B1353A",
"` 	c #253237",
" .	c #EA6E71",
"..	c #090C0D",
"+.	c #312209",
"@.	c #D6D64D",
"#.	c #0F0F06",
"$.	c #877A81",
"%.	c #E6E653",
"&.	c #999937",
"*.	c #2E2E11",
"=.	c #6F98A5",
"-.	c #E9DB4B",
";.	c #5C5C21",
">.	c #13191B",
",.	c #595256",
"'.	c #C7C748",
").	c #2D292B",
"!.	c #6B6B27",
"~.	c #83B1C1",
"{.	c #CFA330",
"].	c #4D4D1C",
"^.	c #5C7C87",
"/.	c #374A51",
"(.	c #2E3F44",
"_.	c #A8A83D",
":.	c #1F1F0B",
"<.	c #AFD7E5",
"[.	c #668B97",
"}.	c #8A8A32",
"|.	c #190A04",
"1.	c #506C76",
"2.	c #DCBE3D",
"3.	c #CBE4EE",
"4.	c #8BBCCD",
"5.	c #B67F20",
"6.	c #7A7078",
"7.	c #4B464B",
"8.	c #EDF5F9",
"9.	c #C79327",
"0.	c #E3EFF5",
"a.	c #433E41",
"b.	c #BEDDE9",
"c.	c #78A3B2",
"d.	c #455E66",
"e.	c #171F22",
"f.	c #795415",
"g.	c #2A383D",
"h.	c #211F20",
"i.	c #9E6E1C",
"j.	c #340C0E",
"k.	c #3D2A0B",
"l.	c #A5D2E1",
"m.	c #A79AA1",
"n.	c #61848F",
"o.	c #696576",
"p.	c #645C61",
"q.	c #7E4652",
"r.	c #8D2A31",
"s.	c #780E13",
"t.	c #D9EBF2",
"u.	c #9BCCDD",
"v.	c #8FC3D4",
"w.	c #7DA9B9",
"x.	c #9C9097",
"y.	c #6D666C",
"z.	c #7F5562",
"A.	c #41585F",
"B.	c #D3AA33",
"C.	c #202C30",
"D.	c #CC9C2C",
"E.	c #241906",
"F.	c #6D5A6B",
"G.	c #3C5159",
"H.	c #F2ED54",
"I.	c #DFC540",
"J.	c #373235",
"K.	c #8B181F",
"L.	c #851016",
"M.	c #817C8A",
"N.	c #7D616F",
"O.	c #415860",
"P.	c #8A5660",
"Q.	c #E2CC44",
"R.	c #7D3940",
"S.	c #D8B73A",
"T.	c #85252E",
"U.	c #392122",
"V.	c #A6771F",
"W.	c #6D4C13",
"X.	c #4E090C",
"Y.	c #AA969F",
"Z.	c #8F848B",
"`.	c #EF7C7E",
" +	c #E5D347",
".+	c #6B3536",
"++	c #855D17",
"@+	c #201111",
"#+	c #553B0F",
"$+	c #49330D",
"%+	c #DF7475",
"&+	c #986C75",
"*+	c #AF5B5C",
"=+	c #93464E",
"-+	c #620C0F",
";+	c #925059",
"                                                                                                                                ",
"                                                                                                                                ",
"          . .                                                                                                                   ",
"        . . . . . . . . .                                                                                                       ",
"        . . . a a a . . . . . . . . . .                                                                                         ",
"        . . l D 8 F 9 ... . . . . . . . . . . . . .                                                                             ",
"        . . l Y 0 0 0 A v 8 D F t e.e a . . . . . . . . . .                                                                     ",
"          . . v s ^ } M.g ^ f o 0 A Y D F 9 >.e e l ..a . . . . . . . . .                                                       ",
"          . . F o ^ q u u 2 r w | M.M.6.o.s 0 A Y 8 F >.... . . . . . . . . . . . . .                                           ",
"            . a v f x x.L C C C Y.x.2 r w | q M.g 6.o.p.0 A Y 8 F t >.a . . . . . . . . . . .                                   ",
"            . . D o k 6.O 1 Q H 3 3 L Y.Y.z z m.2 x.n | x } b o.o 0 A Y J.F t t 9 e l a . . . . . . .                           ",
"              . l v f N.=+4 p R O O *+*+1 Q H J 3 L L C m.u u r x.n q M.6.o.s 0 v Y D e.l a . . . . .                           ",
"              . . D o o.&+J H Q *+O R p 4 p p R O Q H H 3 3 3 3 L L x.x.x.w n q M.M.6.o.p.0 A Y D 9 . .                         ",
"                . l v ^ q Y.C L L 3 J H Q 1 *+*+O O R K K p R R 1 Q H 3 3 C C Y.Y.x.x.x.Z.M.g o.o Y l .                         ",
"                . . D o } n r 2 m.z z z z Y.C L 3 J H Q O R R p K K R T *+*+O 1 Q H H J 3 L Y.w g o D . .                       ",
"                  . e v ^ j n r r r r r r r r r x.C C L L L L 3 J H H *+O R 4 4 4 R R *+*+Q H H N.f v . .                       ",
"                  . . D o k | 2 r w w n n w w w r 2 2 u u u u m.2 x.L 3 J J H H Q *+*+*+*+R K 4 q.o.o t . .                     ",
"                    . l v ^ q m m.z z z z m u u 2 r w n | | | | n w r 2 m.z z m.Y.C L 3 J H Q O ;+N.f v . .                     ",
"                    . . D o g $.Q H J 3 3 L C Y.m.m m u u u u u 2 2 r r r w w n n n w x.x.x.L C C n k o >..                     ",
"                      . e v f N.=+4 p R 1 Q H J 3 L L L C C C C Y.m.u 2 2 r w w w w r r r 2 2 2 u w g s 8 . .                   ",
"                      . . D o 6.&+O R R R R R R K K p O 1 Q H J 3 L C z z z z z z z m.2 2 r w n n q } ^ 0 l .                   ",
"                        . e v ^ Z.C C L 3 J H Q 1 R p Z Z K T R *+*+*+*+Q H H J 3 L L C Y.m m m m m r g s D . .                 ",
"                        . . D s } w w w x.x.x.3 3 3 3 J J H H Q *+O K 5 5 K R *+*+*+H H J 3 3 3 L L L $.f A a .                 ",
"                          . >.v ^ k j q | | n w r 2 u u x.x.L 3 J J H Q *+*+*+*+*+*+6 T K K Z R O *+H &+y.o t . .               ",
"                          . . D o b q r w n | q j j j x q q | w x.2 Y.Y.z C L L 3 H Q 1 R R T T T 6 M *+z.f v a .               ",
"                            . e v ^ x 2 Y.2 2 2 r r w w w n n n n n | | | | n x.x.x.L L L L L 3 J J H *+1 6.o 9 .               ",
"                            . . F o g x.3 L L C C C C C Y.x.x.w w n | q q q | n n w r r 2 2 2 x.x.L 3 3 J Z.^ Y . .             ",
"                              . e v ^ 6.p 6 T R O Q H H J 3 L L Y.z z z m.m.2 r w n | q j j j x | | w r 2 2 x 0 e .             ",
"                              . . D o o.=+R Z 5 K K T *+*+*+*+*+H H H J J 3 3 L L x.Y.2 2 2 2 2 r w w n n | } s D . .           ",
"                                . >.v s z.&+H J J H H *+*+*+*+T K 5 5 R R *+*+Q H J 3 L L L L L x.x.x.x.w w n j 0 l .           ",
"                                . . t v o $.n x.C L L 3 3 J H Q 1 O *+*+*+*+T T T T T T p O 1 Q H J 3 3 L C Y.x.s F . .         ",
"                                  . ..e.F a.7.,.p.6.6.$.Z.x.x.Y.Y.C C L L 3 J H Q 1 O R Z K K K T *+*+*+*+*+*+1 z.v a .         ",
"                                . . . . . . . . ).a.7.p.p.y.6.$.$.Z.Z.Z.x.x.x.L L L L 3 3 3 J H Q *+*+*+R Z 5 B q.,.9 .         ",
"                                . . . . . . . . . a a a a ..l 9 8 7.p.y.6.M.Z.n w r 2 u m m.Y.C L 3 3 J H Q Q *+;+N.Y a .       ",
"                              . . . . . . . . . . . . . . . . . l 9 t ).J.J.a.7.,.o o.k M.q | w x.r Y.Y.z z z Y.C x.s e .       ",
"                            . . . . . . . . . . . . . . . . . . . . . . . . . a 9 t D v A ,.o y.o.6.} M.| n r r r r } 8 a .     ",
"                          . . . . . . . . . . . . . . . . . . . . . . . . . . . . . . . . . l t 8 Y v A o f ^ g } M.g A l .     ",
"                          . . . . . . . . . . . . . . . . . . . . . . . . . . . . . . . . . . a l e e >.9 t D v A o o A e . .   ",
"                        . . . . . . . . . . . . . . . . . . . . . . . . . . . . . . . . . . . . . . . . . . ..9 t F D D a . .   ",
"                      . . . . . . . . . . . . . . . . . . . . . . . . . . . . . . . . . . . . . . . . . . . . . . . . . . . .   ",
"                    . . . . . . . . . . . . . . . . . . . . . . . . . . . . . . . . . . . . . . . . . . . . . . . . . . . . .   ",
"                  . . . . . . . . . . . . . . . . . . . . . . . . . . . . . . . . . . . . . . . . . . . . . . . . . . . . . .   ",
"                . . . . . . . . . . . . . . . . . . . . . . . . . . . . . . . . . . . . . . . . . . . . . . . . . . . . . . .   ",
"                . . . . . . . . . . . . . . . . . . . . . . . . . . . . . . . . . . . . . . . . . . . . . . . . . . . . . .     ",
"              . . . . . . . . . . . . . . . . . . . . . . . . . . . . . . . . . . . . . . . . . . . . . . . . . . . . . .       ",
"            . . . . . . . . . . . . . . . . . . . . . . . . . . . . . . . . . . . . . . . . . . . . . . . . . . . . . . .       ",
"          . . . . . . . . . . . . . . . . . . . . . . . . . . . . . . . . . . . . . . . . . . . . . . . . . . . . . . .         ",
"          . . . . . . . . . . . . . . . . . . . . . . . . . . . . . . . . . . . . . . . . . . . . . . . . . . . . . .           ",
"        . . . . . . . . . . . . . . . . . . . . . . . . . . . . . . . . . . . . . . . . . . . . . . . . . . . . . . .           ",
"      . . . . . . . . . . . . . . . . . . . . . . . . . . . . . . . . . . . . . . . . . . . . . . . . . . . . . . .             ",
"    . . . . . . . . . . . . . . . . . . . . . . . . . . . . . . . . . . . . . . . . . . . . . . . . . . . . . . .               ",
"  . . . . . . . . . . . . . . . . . . . . . . . . . . . . . . . . . . . . . . . . . . . . . . . . . . . . . . . .               ",
"  . . . . . . . . . . . . . . . . . . . . . . . . . . . . . . . . . . . . . . . . . . . . . . . . . . . . . . .                 ",
"  . . . . . . . . . . . . . . . . . . . . . . . . . . . . . . . . . . . . . . . . . . . . . . . . . . . . . .                   ",
"  . . . . . . . . . . . . . . . . . . . . . . . . . . . . . . . . . . . . . . . . . . . . . . . . . . . . . .                   ",
"        . . . . . . . . . . . . . . . . . . . . . . . . . . . . . . . . . . . . . . . . . . . . . . . . . .                     ",
"                . . . . . . . . . . . . . . . . . . . . . . . . . . . . . . . . . . . . . . . . . . . . .                       ",
"                            . . . . . . . . . . . . . . . . . . . . . . . . . . . . . . . . . . . . . . .                       ",
"                                          . . . . . . . . . . . . . . . . . . . . . . . . . . . . . . .                         ",
"                                                    . . . . . . . . . . . . . . . . . . . . . . . . .                           ",
"                                                                . . . . . . . . . . . . . . . . . .                             ",
"                                                                              . . . . . . . . . . .                             ",
"                                                                                          . . .                                 ",
"                                                                                                                                "};
