/* XPM */
static char * vent_closed_xpm[] = {
"64 64 196 2",
"  	c None",
". 	c #000000",
"+ 	c #000000",
"@ 	c #000000",
"# 	c #000000",
"$ 	c #000000",
"% 	c #000000",
"& 	c #000000",
"* 	c #000000",
"= 	c #000000",
"- 	c #000000",
"; 	c #000000",
"> 	c #000000",
", 	c #000000",
"' 	c #000000",
") 	c #000000",
"! 	c #000000",
"~ 	c #000000",
"{ 	c #B2A4AC",
"] 	c #F5F558",
"^ 	c #656C7F",
"/ 	c #8E1117",
"( 	c #94C9DB",
"_ 	c #C28722",
": 	c #4A646D",
"< 	c #FF8486",
"[ 	c #FDFCFE",
"} 	c #787A8A",
"| 	c #8C8896",
"1 	c #A05B62",
"2 	c #9F96A1",
"3 	c #A97F87",
"4 	c #97363C",
"5 	c #AA2E33",
"6 	c #C74B4F",
"7 	c #E3676A",
"8 	c #333640",
"9 	c #191B20",
"0 	c #4C515F",
"a 	c #060707",
"b 	c #6A7082",
"c 	c #ADA1A9",
"d 	c #3D3D16",
"e 	c #131417",
"f 	c #5F6577",
"g 	c #737787",
"h 	c #B8B842",
"i 	c #7B7B2C",
"j 	c #7D7E8D",
"k 	c #6F7385",
"l 	c #0D0E10",
"m 	c #A89DA6",
"n 	c #908C98",
"o 	c #525867",
"p 	c #993F46",
"q 	c #878593",
"r 	c #9A939E",
"s 	c #585F6F",
"t 	c #1F2328",
"u 	c #A49AA4",
"v 	c #3F444F",
"w 	c #958F9B",
"x 	c #828190",
"y 	c #93232A",
"z 	c #B09BA3",
"A 	c #454A57",
"B 	c #952D33",
"C 	c #AE9299",
"D 	c #2C2F38",
"E 	c #901A20",
"F 	c #262930",
"G 	c #95181E",
"H 	c #A56D74",
"I 	c #D5595C",
"J 	c #A7767D",
"K 	c #B83C41",
"L 	c #AB8890",
"M 	c #CE5255",
"N 	c #614411",
"O 	c #9E5158",
"P 	c #A3272C",
"Q 	c #A2646B",
"R 	c #9C484F",
"S 	c #9C1F25",
"T 	c #BF4348",
"U 	c #DC6063",
"V 	c #F87D7F",
"W 	c #92651A",
"X 	c #F17678",
"Y 	c #393D47",
"Z 	c #B1353A",
"` 	c #253237",
" .	c #EA6E71",
"..	c #090C0D",
"+.	c #312209",
"@.	c #D6D64D",
"#.	c #0F0F06",
"$.	c #877A81",
"%.	c #E6E653",
"&.	c #999937",
"*.	c #2E2E11",
"=.	c #6F98A5",
"-.	c #E9DB4B",
";.	c #5C5C21",
">.	c #13191B",
",.	c #595256",
"'.	c #C7C748",
").	c #2D292B",
"!.	c #6B6B27",
"~.	c #83B1C1",
"{.	c #CFA330",
"].	c #4D4D1C",
"^.	c #5C7C87",
"/.	c #374A51",
"(.	c #2E3F44",
"_.	c #A8A83D",
":.	c #1F1F0B",
"<.	c #AFD7E5",
"[.	c #668B97",
"}.	c #8A8A32",
"|.	c #190A04",
"1.	c #506C76",
"2.	c #DCBE3D",
"3.	c #CBE4EE",
"4.	c #8BBCCD",
"5.	c #B67F20",
"6.	c #7A7078",
"7.	c #4B464B",
"8.	c #EDF5F9",
"9.	c #C79327",
"0.	c #E3EFF5",
"a.	c #433E41",
"b.	c #BEDDE9",
"c.	c #78A3B2",
"d.	c #455E66",
"e.	c #171F22",
"f.	c #795415",
"g.	c #2A383D",
"h.	c #211F20",
"i.	c #9E6E1C",
"j.	c #340C0E",
"k.	c #3D2A0B",
"l.	c #A5D2E1",
"m.	c #A79AA1",
"n.	c #61848F",
"o.	c #696576",
"p.	c #645C61",
"q.	c #7E4652",
"r.	c #8D2A31",
"s.	c #780E13",
"t.	c #D9EBF2",
"u.	c #9BCCDD",
"v.	c #8FC3D4",
"w.	c #7DA9B9",
"x.	c #9C9097",
"y.	c #6D666C",
"z.	c #7F5562",
"A.	c #41585F",
"B.	c #D3AA33",
"C.	c #202C30",
"D.	c #CC9C2C",
"E.	c #241906",
"F.	c #6D5A6B",
"G.	c #3C5159",
"H.	c #F2ED54",
"I.	c #DFC540",
"J.	c #373235",
"K.	c #8B181F",
"L.	c #851016",
"M.	c #817C8A",
"N.	c #7D616F",
"O.	c #415860",
"P.	c #8A5660",
"Q.	c #E2CC44",
"R.	c #7D3940",
"S.	c #D8B73A",
"T.	c #85252E",
"U.	c #392122",
"V.	c #A6771F",
"W.	c #6D4C13",
"X.	c #4E090C",
"Y.	c #AA969F",
"Z.	c #8F848B",
"`.	c #EF7C7E",
" +	c #E5D347",
".+	c #6B3536",
"++	c #855D17",
"@+	c #201111",
"#+	c #553B0F",
"$+	c #49330D",
"%+	c #DF7475",
"&+	c #986C75",
"*+	c #AF5B5C",
"=+	c #93464E",
"-+	c #620C0F",
";+	c #925059",
"                                  .                                                                                             ",
"                                . . a a .                                                                                       ",
"                                . . a a a . . a >.                                                                              ",
"                                a ..e l ....a a l e l .                                                                         ",
"                              a l >.e.t e.9 e e l l ..a . a a                                                                   ",
"                              ..>.t D D D D ).t 9 >.e l ..a a a ..l e 9                                                         ",
"                            . l t D Y v v v a.8 D F F e.9 e l ..l l e 9 9 9                                                     ",
"                            a e D v 0 o p.,.,.A 7.a.Y D F t h.>.>.e e e e l l a ..e                                             ",
"                            ..e.8 A o o.6.y.y.s p.,.0 v Y 8 J.F F t e.9 e e l ..l e 9 t 9                                       ",
"                          a e F v 0 f 6.Z.$.6.6.6.o.f o o ,.7.v Y 8 D F t e.>.>.e e e >.l a a ..                                ",
"                          ..e.8 A o y.$.x.Z.$.$.$.} g b o.y.p.o 0 A v Y 8 8 F t t t 9 e l l ..l l a                             ",
"                        a e F v 0 p.N.&+3 3 J J J Z.M.M.M.g 6.b o.f o o 0 A Y 8 8 D F t 9 9 e e l ..a a                         ",
"                        ..9 8 A o y.P.Q H J J J J Z.Z.Z.Z.Z.$.M.} k o.o.f s o 0 A v v 8 D F t 9 9 >.e l l a a a                 ",
"                      a l t Y o f N.Q Q Q Q Q Q Q &+J 3 3 3 3 3 | M.$.M.} k ^ f y.s o A v Y 8 D D F t 9 >.e l ......            ",
"                      a e D A s o.6.H H Q 1 *+*+1 Q H J J J J 3 x.Z.Z.Z.Z.Z.M.} $.b ^ f o o 0 v v Y 8 D F t 9 >.>.e a a         ",
"                      ..e.8 0 ^ g $.3 J H Q Q Q Q Q Q Q Q H H J J J J 3 L L x.| Z.x j g b ^ f s o 0 A v Y 8 D F t >.l ...       ",
"                    a l F v s k x Z.L L 3 J J J H H H Q Q Q Q H H H H J 3 3 3 x.x.| | Z.x j } k ^ f s o 0 A v Y D F 9 l .       ",
"                    a >.D A f g q n 2 C L 3 3 3 J J J H Q Q Q *+Q *+Q Q H J J 3 3 3 L L n n q q j } k y.o.f o 0 v 8 t e . .     ",
"                  a l t Y o b j | w 2 Y.C L L L L 3 3 3 J H Q Q Q *+1 1 Q Q H H J J 3 3 x.x.x.w | q x $.} g b s 0 v D 9 a .     ",
"                  a >.D v s k Z.n r r 2 2 2 x.x.x.x.x.x.3 J J H H H Q Q Q Q *+Q H H J J J 3 3 L L x.n n | q j b s A 8 t ...     ",
"                  l e.8 0 s } Z.x.2 2 2 2 2 r x.x.x.x.x.L L 3 3 3 J J H H Q *+Q Q Q H H H H J 3 3 L x.x.x.x.| } ^ 0 Y F l .     ",
"                a e F v o y.$.3 L C C C Y.2 2 r r r w r 2 x.x.x.x.x.x.3 J H H H H H Q Q Q Q Q H J J 3 3 3 L x.j ^ o v F l .     ",
"                ..9 8 A s y.&+J 3 L L L C 2 2 2 2 r r r 2 2 x.x.x.x.x.L L 3 J J J J H H H Q Q Q H H H H J 3 Z.j ^ o v F l .     ",
"              a l F v o y.N.Q H J 3 3 3 L L x.C C 2 r r r 2 r r r w w x.C x.L 3 3 3 J J J H H Q Q Q Q Q Q H $.} f 0 Y t ..      ",
"              ..>.D 0 o.6.&+1 Q Q H H J J 3 3 L L x.2 x.2 2 2 r r r r r 2 x.x.L L L L 3 3 J J H H H H Q Q Q 6.k s 0 8 t ..      ",
"              l e.Y o 6.$.&+Q *+*+*+Q Q H H J J 3 3 L L C Y.Y.2 2 2 2 r r w r 2 Y.C x.x.L L 3 3 3 J J H H Q N.o.o A 8 9 a       ",
"            a >.F A f 6.$.J H Q Q Q Q 1 Q Q Q H H J 3 3 L C C Y.Y.Y.Y.2 2 r r 2 m.m.x.x.Y.C C L L 3 3 3 J &+N.o.0 v F e a       ",
"            ..e.8 o ^ M.Z.3 3 J J H H *+*+*+*+Q Q Q H H J 3 3 L C C C C Y.2 2 r 2 2 r r r 2 2 Y.Y.C C L L Z.6.s A Y t ...       ",
"          a e F v s g x | L L 3 3 J J H Q Q Q Q Q 1 1 Q H H J 3 L L L L C Y.Y.2 2 2 2 2 2 2 2 2 2 Y.Y.Y.x.Z.6.s A 8 9 a         ",
"          ..9 8 0 ^ j q w x.x.L L L L 3 J H H H Q *+*+*+*+*+*+H J J J J 3 L L C 2 2 u u 2 2 r r r 2 2 r n x b o v D >.a         ",
"          l F v s k x | w w x.x.x.x.x.L 3 J J J H H Q Q Q Q *+Q H H H H H J 3 L x.Y.Y.Y.Y.Y.r r r 2 r w | j ^ 0 Y t e a         ",
"        a >.D A y.M.| n n w w w w w w x.x.L 3 3 3 3 J J H H *+*+*+*+Q 1 *+Q H J 3 L L L C C x.x.r r r n x g f A D 9 ...         ",
"        l h.Y ,.y.$.n w w w w w w w w w w x.L L L L 3 3 3 J H Q Q Q Q 1 *+1 1 H H J 3 3 L L L L x.2 r | j k s v F e a           ",
"      a e ).7.,.N.&+x.x.x.x.x.x.w w n n n w x.w x.x.x.L L L 3 J J H H Q *+*+1 1 Q Q H H J J J 3 L C x.| } ^ o Y t l .           ",
"      l 9 a.,.p.z.Q J 3 3 L L L x.x.w w w w w w w w w x.x.x.L 3 3 3 J J H H Q Q 1 Q Q Q H H H J J 3 L q g f 0 8 9 ...           ",
"      e F 7.,.N.P.1 Q H J J 3 3 3 L x.x.x.r w w w w n n n w x.x.L L 3 3 J J J H Q Q Q Q Q Q Q Q Q H 3 M.k s v F >.a             ",
"    ..9 8 ,.F.N.Q 1 1 Q Q H H J J 3 3 L L x.x.w w w w w w w w x.x.x.x.x.L 3 3 3 J J H H H Q Q Q 1 Q &+6.f o Y t l a             ",
"    l t Y p.N.&+H Q *+1 *+*+Q H H H J 3 3 L x.x.x.x.w w w w n w w w w n w x.x.x.3 3 J J J H H Q 1 P.N.o.s 0 8 9 ...             ",
"    >.D A o.$.3 J H H H Q Q Q Q Q Q Q H H J 3 3 3 3 x.x.x.x.w w w w n n w w w w x.L 3 L 3 3 3 J H &+N.F.o v D e a               ",
"  a 9 8 0 b Z.L 3 J J J H Q Q *+*+*+1 Q Q H J J J J x.x.C C x.w w n n n n n n n w x.L x.x.x.L 3 J &+6.F.0 Y t l a               ",
"  a 9 8 o b q x.x.L 3 3 J H H H Q Q Q Q Q Q Q Q Q H 3 3 3 3 L L x.w w w w w w n n w x.w w w x.x.Z.$.6.s A D 9 ..a               ",
"  ..9 8 o b j q x.x.L L 3 J J J H H H H Q *+*+*+*+*+H H J J 3 3 L x.x.x.x.x.w n n n n n n n n n | x k s v F e a                 ",
"  ..9 D A ^ g } q | n n Z.L L L 3 3 3 3 J H Q *+*+*+*+Q Q Q H H J 3 3 L L L x.w w w w w w w n | q } ^ 0 Y t l a                 ",
"  a >.t Y s f ^ g j x x q n x.x.L L L L 3 J H Q *+*+*+*+1 1 1 Q H J J 3 3 3 L x.x.x.x.w w w n q j g f A 8 e....                 ",
"  a e e.D v 0 s f ^ b g g M.Z.Z.Z.n x.x.L 3 J J H H Q H Q Q 1 1 Q Q Q J J J 3 3 L L x.x.2 r w q } b s v D >...                  ",
"  a l e.e.F 8 A 0 o o f f b 6.} j x | n x.L 3 3 J J J J H Q Q 1 *+*+*+H H H J J J 3 L x.Y.2 w q g ^ o Y F l a                   ",
"    ..>.>.9 t D 8 Y Y 0 0 s y.y.b g } j x Z.Z.Z.3 3 3 3 J H H Q Q Q *+*+*+Q H Q H H J 3 L L n x k f A 8 t ..a                   ",
"          e l e >.t t 8 Y A ,.,.s f ^ b k 6.$.$.3 3 L L 3 J J J H H Q *+*+*+Q *+*+Q Q H J 3 | j b s v D >.a                     ",
"            l l ..e e 9 t D a.a.A 0 o s f o.o.k $.$.Z.Z.Z.Z.Z.3 J J J H Q Q H Q *+*+1 Q Q J Z.} ^ o Y t e a                     ",
"                  a a . ..e h.).J.8 a.A 0 0 o s y.b k $.$.$.$.3 3 3 3 J H H H H *+*+1 *+*+Q $.k f A 8 e...a                     ",
"                        a ..l e h.h.).D 8 8 Y v ,.p.p.y.6.6.6.$.$.Z.Z.Z.J J J J H Q 1 1 1 P.N.o.s v D >...                      ",
"                            a a a a ..e >.9 t ).J.7.7.,.p.p.p.y.6.$.$.$.J J J J J J H Q 1 P.N.o.0 Y F e a                       ",
"                                    . a ..l e >.h.D J.a.7.7.,.,.p.y.y.6.$.&+&+&+J J J &+&+P.F.o A 8 e.l a                       ",
"                                      a a a a a ..e >.h.).J.a.a.7.,.,.p.y.N.N.&+&+J &+&+&+z.p.0 v D >.a                         ",
"                                            . . . ....e e h.t ).J.Y a.7.,.p.p.F.N.6.N.6.N.F.o A Y F e a                         ",
"                                              . . a a a a a a e 9 F ).J.a.7.7.,.,.p.p.y.F.p.0 v D t l .                         ",
"                                                        . . . a l e e 9 ).J.a.a.7.7.,.,.,.7.v 8 F >...                          ",
"                                                            . . a . a a e h.).).J.J.a.a.a.a.8 F e.e a                           ",
"                                                                    . . a l e e h.h.t F J.F F e.>...                            ",
"                                                                        . . . . a a l >.h.9 e.e l a                             ",
"                                                                              . . . a a l l l ..a                               ",
"                                                                                . . . . . a . a .                               ",
"                                                                                                                                ",
"                                                                                                                                "};
