/* XPM */
static char * vent_closed_chizz_xpm[] = {
"64 64 119 2",
"  	c #F9E650",
". 	c #F9E756",
"+ 	c #FBEB71",
"@ 	c #FDED7F",
"# 	c #FDEE82",
"$ 	c #000000",
"% 	c #FDEE80",
"& 	c #FCEB74",
"* 	c #FAE758",
"= 	c #F9E651",
"- 	c #FDEE81",
"; 	c #FCEC79",
"> 	c #FAE860",
", 	c #F9E652",
"' 	c #FAE963",
") 	c #FCED7D",
"! 	c #060707",
"~ 	c #FDED7E",
"{ 	c #FBE968",
"] 	c #FBE969",
"^ 	c #FCEC75",
"/ 	c #F9E653",
"( 	c #FBEA6D",
"_ 	c #13191B",
": 	c #FBEB73",
"< 	c #F9E654",
"[ 	c #FCEB72",
"} 	c #090C0D",
"| 	c #131417",
"1 	c #0D0E10",
"2 	c #FCEC7A",
"3 	c #FCED7A",
"4 	c #FDEC76",
"5 	c #171F22",
"6 	c #1F2328",
"7 	c #191B20",
"8 	c #FBEA6A",
"9 	c #FAE85D",
"0 	c #FAE757",
"a 	c #FCED7B",
"b 	c #2C2F38",
"c 	c #2D292B",
"d 	c #FDEC7F",
"e 	c #393D47",
"f 	c #3F444F",
"g 	c #433E41",
"h 	c #333640",
"i 	c #262930",
"j 	c #F9E754",
"k 	c #4C515F",
"l 	c #525867",
"m 	c #645C61",
"n 	c #595256",
"o 	c #454A57",
"p 	c #4B464B",
"q 	c #211F20",
"r 	c #FAE85F",
"s 	c #696576",
"t 	c #7A7078",
"u 	c #6D666C",
"v 	c #585F6F",
"w 	c #373235",
"x 	c #5F6577",
"y 	c #8F848B",
"z 	c #877A81",
"A 	c #FAE759",
"B 	c #FBEA6E",
"C 	c #9C9097",
"D 	c #787A8A",
"E 	c #737787",
"F 	c #6A7082",
"G 	c #7D616F",
"H 	c #986C75",
"I 	c #A97F87",
"J 	c #A7767D",
"K 	c #817C8A",
"L 	c #F9E755",
"M 	c #FAE85B",
"N 	c #FAE85E",
"O 	c #FBE967",
"P 	c #FCEC76",
"Q 	c #8A5660",
"R 	c #A2646B",
"S 	c #A56D74",
"T 	c #6F7385",
"U 	c #F9E758",
"V 	c #FAE968",
"W 	c #FBEA70",
"X 	c #FCEE7B",
"Y 	c #8C8896",
"Z 	c #656C7F",
"` 	c #FBEB70",
" .	c #A05B62",
"..	c #AF5B5C",
"+.	c #AB8890",
"@.	c #828190",
"#.	c #7D7E8D",
"$.	c #878593",
"%.	c #908C98",
"&.	c #9F96A1",
"*.	c #AE9299",
"=.	c #958F9B",
"-.	c #AA969F",
";.	c #9A939E",
">.	c #FDED7D",
",.	c #FBEA6F",
"'.	c #FAE75A",
").	c #A79AA1",
"!.	c #A49AA4",
"~.	c #FBEC75",
"{.	c #7F5562",
"].	c #6D5A6B",
"^.	c #FBEA69",
"/.	c #FDEE7F",
"(.	c #FBE863",
"_.	c #FBE966",
":.	c #FDEC79",
"<.	c #FCEB75",
"[.	c #FBED7A",
"                      . + @ # # # $ # # # # # # # # # # # # # # # # # % & * =     = * & % # # # # # # # # # # # # # # # # - ; > ",
"                    , ' ) - # # $ $ ! ! $ # # # # # # # # # # # # # # # ~ { ,     , ] ~ # # # # # # # # # # # # # # # # # # @ ^ ",
"                    / ( - # # # $ $ ! ! ! $ $ ! _ # # # # # # # # # # # - : <     < : - # # # # # # # # # # # # # # # # # # # % ",
"                    < [ - # # # ! } | 1 } } ! ! 1 | 1 $ # # # # # # # # # 2 *     * 3 # # # # # # # # # # # # # # # # # # # # # ",
"                    < 4 - # # ! 1 _ 5 6 5 7 | | 1 1 } ! $ ! ! # # # # # # % 8 9 9 8 % # # # # # # # # # # # # # # # # # # # # # ",
"                    0 a # # # } _ 6 b b b b c 6 7 _ | 1 } ! ! ! } 1 | 7 # # d & & @ # # # # # # # # # # # # # # # # # # # # # # ",
"                  = > @ # # $ 1 6 b e f f f g h b i i 5 7 | 1 } 1 1 | 7 7 7 # - - # # # # # # # # # # # # # # # # # # # # # # # ",
"                  j + - # # ! | b f k l m n n o p g e b i 6 q _ _ | | | | 1 1 ! } | # # # # # # # # # # # # # # # # # # # # # # ",
"                = r ) # # # } 5 h o l s t u u v m n k f e h w i i 6 5 7 | | 1 } 1 | 7 6 7 # # # # # # # # # # # # # # # # # # # ",
"                0 & - # # ! | i f k x t y z t t t s x l l n p f e h b i 6 5 _ _ | | | _ 1 ! ! } # # # # # # # # # # # # # # # # ",
"              A B @ # # # } 5 h o l u z C y z z z D E F s u m l k o f e h h i 6 6 6 7 | 1 1 } 1 1 ! # # # # # # # # # # # # # # ",
"          < r B @ # # # ! | i f k m G H I I J J J y K K K E t F s x l l k o e h h b i 6 7 7 | | 1 } ! ! # # # # # # # # # # # # ",
"  L A M N O P - # # # # } 7 h o l u Q R S J J J J y y y y y z K D T s s x v l k o f f h b i 6 7 7 _ | 1 1 ! ! ! # # # # # # # # ",
"U V W 4 X % - # # # # ! 1 6 e l x G R R R R R R R H J I I I I I Y K z K D T Z x u v l o f e h b b i 6 7 _ | 1 } } } # # # # # # ",
"` ~ % - - # # # # # # ! | b o v s t S S R  ..... .R S J J J J I C y y y y y K D z F Z x l l k f f e h b i 6 7 _ _ | ! ! # # # # ",
"~ # # # # # # # # # # } 5 h k Z E z I J S R R R R R R R R S S J J J J I +.+.C Y y @.#.E F Z x v l k o f e h b i 6 _ 1 } $ # # # ",
"# # # # # # # # # # ! 1 i f v T @.y +.+.I J J J S S S R R R R S S S S J I I I C C Y Y y @.#.D T Z x v l k o f e b i 7 1 $ # # # ",
"# # # # # # # # # # ! _ b o x E $.%.&.*.+.I I I J J J S R R R ..R ..R R S J J I I I +.+.%.%.$.$.#.D T u s x l k f h 6 | $ $ # # ",
"# # # # # # # # # ! 1 6 e l F #.Y =.&.-.*.+.+.+.+.I I I J S R R R .. . .R R S S J J I I C C C =.Y $.@.z D E F v k f b 7 ! $ # # ",
"# # # # # # # # # ! _ b f v T y %.;.;.&.&.&.C C C C C C I J J S S S R R R R ..R S S J J J I I +.+.C %.%.Y $.#.F v o h 6 } $ # # ",
"# # # # # # # # # 1 5 h k v D y C &.&.&.&.&.;.C C C C C +.+.I I I J J S S R ..R R R S S S S J I I +.C C C C Y D Z k e i 1 $ # >.",
"# # # # # # # # ! | i f l u z I +.*.*.*.-.&.&.;.;.;.=.;.&.C C C C C C I J S S S S S R R R R R S J J I I I +.C #.Z l f i 1 $ @ ,.",
"# # # # # # # # } 7 h o v u H J I +.+.+.*.&.&.&.&.;.;.;.&.&.C C C C C +.+.I J J J J S S S R R R S S S S J I y #.Z l f i 1 $ V U ",
"# # # # # # # ! 1 i f l u G R S J I I I +.+.C *.*.&.;.;.;.&.;.;.;.=.=.C *.C +.I I I J J J S S R R R R R R S z D x k e 6 } '.L   ",
"# # # # # # # } _ b k s t H  .R R S S J J I I +.+.C &.C &.&.&.;.;.;.;.;.&.C C +.+.+.+.I I J J S S S S R R R t T v k h 6 }       ",
"# # # # # # # 1 5 e l t z H R ......R R S S J J I I +.+.*.-.-.&.&.&.&.;.;.=.;.&.-.*.C C +.+.I I I J J S S R G s l o h 7 !       ",
"# # # # # # ! _ i o x t z J S R R R R  .R R R S S J I I +.*.*.-.-.-.-.&.&.;.;.&.).).C C -.*.*.+.+.I I I J H G s k f i | !       ",
"# # # # # # } 5 h l Z K y I I J J S S ........R R R S S J I I +.*.*.*.*.-.&.&.;.&.&.;.;.;.&.&.-.-.*.*.+.+.y t v o e 6 } $ 9 * , ",
"# # # # # ! | i f v E @.Y +.+.I I J J S R R R R R  . .R S S J I +.+.+.+.*.-.-.&.&.&.&.&.&.&.&.&.&.-.-.-.C y t v o h 7 ! % ) & N ",
"# # # # # } 7 h k Z #.$.=.C C +.+.+.+.I J S S S R ............S J J J J I +.+.*.&.&.!.!.&.&.;.;.;.&.&.;.%.@.F l f b _ ! # # % ~.",
"# # # # # 1 i f v T @.Y =.=.C C C C C +.I J J J S S R R R R ..R S S S S S J I +.C -.-.-.-.-.;.;.;.&.;.=.Y #.Z k e 6 | ! # # # % ",
"# # # # ! _ b o u K Y %.%.=.=.=.=.=.=.C C +.I I I I J J S S ........R  ...R S J I +.+.+.*.*.C C ;.;.;.%.@.E x o b 7 } $ # # # # ",
"# # # # 1 q e n u z %.=.=.=.=.=.=.=.=.=.=.C +.+.+.+.I I I J S R R R R  ... . .S S J I I +.+.+.+.C &.;.Y #.T v f i | ! # # # # # ",
"# # # ! | c p n G H C C C C C C =.=.%.%.%.=.C =.C C C +.+.+.I J J S S R .... . .R R S S J J J I +.*.C Y D Z l e 6 1 $ # # # # # ",
"# # # 1 7 g n m {.R J I I +.+.+.C C =.=.=.=.=.=.=.=.=.C C C +.I I I J J S S R R  .R R R S S S J J I +.$.E x k h 7 } $ # # # # # ",
"# # # | i p n G Q  .R S J J I I I +.C C C ;.=.=.=.=.%.%.%.=.C C +.+.I I J J J S R R R R R R R R R S I K T v f i _ ! # # # # # # ",
"# # } 7 h n ].G R  . .R R S S J J I I +.+.C C =.=.=.=.=.=.=.=.C C C C C +.I I I J J S S S R R R  .R H t x l e 6 1 ! # # # # # # ",
"# # 1 6 e m G H S R .. .....R S S S J I I +.C C C C =.=.=.=.%.=.=.=.=.%.=.C C C I I J J J S S R  .Q G s v k h 7 } $ # # # # # # ",
"- # _ b o s z I J S S S R R R R R R R S S J I I I I C C C C =.=.=.=.%.%.=.=.=.=.C +.I +.I I I J S H G ].l f b | ! # # # # # # # ",
"2 ! 7 h k F y +.I J J J S R R ...... .R R S J J J J C C *.*.C =.=.%.%.%.%.%.%.%.=.C +.C C C +.I J H t ].k e 6 1 ! # # # # # # # ",
"^.! 7 h l F $.C C +.I I J S S S R R R R R R R R R S I I I I +.+.C =.=.=.=.=.=.%.%.=.C =.=.=.C C y z t v o b 7 } ! # # # # # # # ",
"/ } 7 h l F #.$.C C +.+.I J J J S S S S R ..........S S J J I I +.C C C C C =.%.%.%.%.%.%.%.%.%.Y @.T v f i | ! # # # # # # # # ",
"  } 7 b o Z E D $.Y %.%.y +.+.+.I I I I J S R ........R R R S S J I I +.+.+.C =.=.=.=.=.=.=.%.Y $.D Z k e 6 1 ! # # # # # # # # ",
"  ! _ 6 e v x Z E #.@.@.$.%.C C +.+.+.+.I J S R ........ . . .R S J J I I I +.C C C C =.=.=.%.$.#.E x o h 5 } $ # # # # # # # # ",
"  ! | 5 b f k v x Z F E E K y y y %.C C +.I J J S S R S R R  . .R R R J J J I I +.+.C C &.;.=.$.D F v f b _ } @ # # # # # # # # ",
"  ! 1 5 5 i h o k l l x x F t D #.@.Y %.C +.I I J J J J S R R  .......S S S J J J I +.C -.&.=.$.E Z l e i 1 ! /.# # # # # # # # ",
"L (.} _ _ 7 6 b h e e k k v u u F E D #.@.y y y I I I I J S S R R R ......R S R S S J I +.+.%.@.T x o h 6 } ! % # # # # # # # # ",
"_.:.% # # | 1 | _ 6 6 h e o n n v x Z F T t z z I I +.+.I J J J S S R ......R ....R R S J I Y #.F v f b _ ! <.- # # # # # # # # ",
"[.- # # # # 1 1 } | | 7 6 b g g o k l v x s s T z z y y y y y I J J J S R R S R .... .R R J y D Z l e 6 | ! ~ # # # # # # # # # ",
"- # # # # # # # # ! ! $ } | q c w h g o k k l v u F T z z z z I I I I J S S S S .... .....R z T x o h 5 } ! - # # # # # # # # # ",
"# # # # # # # # # # # # ! } 1 | q q c b h h e f n m m u t t t z z y y y J J J J S R  . . .Q G s v f b _ } @ # # # # # # # # # # ",
"# # # # # # # # # # # # # # ! ! ! ! } | _ 7 6 c w p p n m m m u t z z z J J J J J J S R  .Q G s k e i | ! # # # # # # # # # # # ",
"# # # # # # # # # # # # # # # # # # $ ! } 1 | _ q b w g p p n n m u u t z H H H J J J H H Q ].l o h 5 1 ! # # # # # # # # # # # ",
"# # # # # # # # # # # # # # # # # # # ! ! ! ! ! } | _ q c w g g p n n m u G G H H J H H H {.m k f b _ ! # # # # # # # # # # # # ",
"# # # # # # # # # # # # # # # # # # # # # # $ $ $ } } | | q 6 c w e g p n m m ].G t G t G ].l o e i | ! # # # # # # # # # # # # ",
"# # # # # # # # # # # # # # # # # # # # # # # $ $ ! ! ! ! ! ! | 7 i c w g p p n n m m u ].m k f b 6 1 $ # # # # # # # # # # # # ",
"# # # # # # # # # # # # # # # # # # # # # # # # # # # # $ $ $ ! 1 | | 7 c w g g p p n n n p f h i _ } # # # # # # # # # # # # # ",
"# # # # # # # # # # # # # # # # # # # # # # # # # # # # # # $ $ ! $ ! ! | q c c w w g g g g h i 5 | ! # # # # # # # # # # # # # ",
"# # # # # # # # # # # # # # # # # # # # # # # # # # # # # # # # # # $ $ ! 1 | | q q 6 i w i i 5 _ } # # # # # # # # # # # # # # ",
"# # # # # # # # # # # # # # # # # # # # # # # # # # # # # # # # # # # # $ $ $ $ ! ! 1 _ q 7 5 | 1 ! # # # # # # # # # # # # # # ",
"# # # # # # # # # # # # # # # # # # # # # # # # # # # # # # # # # # # # # # # $ $ $ ! ! 1 1 1 } ! # # # # # # # # # # # # # # # ",
"% # # # # # # # # # # # # # # # # # # # # # # # # # # # # # # # # # # # # # # # $ $ $ $ $ ! $ ! $ # # # # # # # # # # # # # # % ",
"P @ # # # # # # # # # # # # # # # # # # # # # # # # # # # # # # # # # # # # # # # # # # # # # # # # # # # # # # # # # # # # @ ^ ",
"> ; - # # # # # # # # # # # # # # # # # # # # # # # # # # # # # # # # # # # # # # # # # # # # # # # # # # # # # # # # # # - ; > "};
