/* XPM */
static char * us_xpm[] = {
"24 24 13 1",
" 	c None",
".	c #738498",
"+	c #738598",
"@	c #738599",
"#	c #738698",
"$	c #728598",
"%	c #738597",
"&	c #748498",
"*	c #748597",
"=	c #728599",
"-	c #738499",
";	c #748599",
">	c #738497",
"                        ",
"           ..+.@        ",
"         +++++++++      ",
"        #++     +++     ",
"       $++       +++    ",
"       ++         ++    ",
"      %+    &++++++++   ",
"      *+   $+++++++++   ",
"   +*+++   ++       ++  ",
"  ++++++   ++       ++  ",
"  ++  ++   ++      =++  ",
"  ++  ++   -++++++++++  ",
"  ++  ++    ;++++++++   ",
"  ++  ++           ++   ",
"  ++  ++           ++   ",
"  ++  ++           ++   ",
"  ++  ++           ++   ",
"  #+++++   %+++++  ++   ",
"   +++++   ++@+++  ++   ",
"      ++   ++ ++   ++   ",
"      ++   ++ $+   ++   ",
"      >+++++>  ++++++   ",
"       $+++.    ;++.    ",
"                        "};
